<mxfile host="Electron" modified="2024-10-14T16:02:55.691Z" agent="Mozilla/5.0 (Windows NT 10.0; Win64; x64) AppleWebKit/537.36 (KHTML, like Gecko) draw.io/22.0.3 Chrome/114.0.5735.289 Electron/25.8.4 Safari/537.36" etag="OkBHd3X0M87jTSVeoXCJ" version="22.0.3" type="device">
  <diagram name="第1頁" id="RSBEpMBs8AiLDluXtR-K">
    <mxGraphModel dx="1036" dy="614" grid="1" gridSize="10" guides="1" tooltips="1" connect="1" arrows="1" fold="1" page="1" pageScale="1" pageWidth="827" pageHeight="1169" math="0" shadow="0">
      <root>
        <mxCell id="0" />
        <mxCell id="1" parent="0" />
        <mxCell id="vbGfuvybAaN1K-2_PYyb-240" value="alt" style="shape=umlFrame;whiteSpace=wrap;html=1;pointerEvents=0;width=45;height=20;" parent="1" vertex="1">
          <mxGeometry x="181.15" y="1190" width="690" height="90" as="geometry" />
        </mxCell>
        <mxCell id="vbGfuvybAaN1K-2_PYyb-241" value="User" style="shape=umlActor;verticalLabelPosition=bottom;verticalAlign=top;html=1;outlineConnect=0;" parent="1" vertex="1">
          <mxGeometry x="90" y="100" width="30" height="60" as="geometry" />
        </mxCell>
        <mxCell id="vbGfuvybAaN1K-2_PYyb-242" value="" style="endArrow=none;dashed=1;html=1;rounded=0;" parent="1" edge="1">
          <mxGeometry width="50" height="50" relative="1" as="geometry">
            <mxPoint x="105" y="540" as="sourcePoint" />
            <mxPoint x="104.5" y="190" as="targetPoint" />
          </mxGeometry>
        </mxCell>
        <mxCell id="vbGfuvybAaN1K-2_PYyb-243" value=":UserUI" style="rounded=1;whiteSpace=wrap;html=1;" parent="1" vertex="1">
          <mxGeometry x="190" y="140" width="80" height="40" as="geometry" />
        </mxCell>
        <mxCell id="vbGfuvybAaN1K-2_PYyb-244" value="EnterRegisterSystem()" style="endArrow=classic;html=1;rounded=0;entryX=0;entryY=0.333;entryDx=0;entryDy=0;entryPerimeter=0;" parent="1" target="vbGfuvybAaN1K-2_PYyb-247" edge="1">
          <mxGeometry y="10" width="50" height="50" relative="1" as="geometry">
            <mxPoint x="110" y="210" as="sourcePoint" />
            <mxPoint x="220" y="210" as="targetPoint" />
            <mxPoint as="offset" />
          </mxGeometry>
        </mxCell>
        <mxCell id="vbGfuvybAaN1K-2_PYyb-245" value="" style="endArrow=none;dashed=1;html=1;rounded=0;" parent="1" source="vbGfuvybAaN1K-2_PYyb-247" edge="1">
          <mxGeometry width="50" height="50" relative="1" as="geometry">
            <mxPoint x="230" y="540" as="sourcePoint" />
            <mxPoint x="230" y="190" as="targetPoint" />
          </mxGeometry>
        </mxCell>
        <mxCell id="vbGfuvybAaN1K-2_PYyb-246" value="" style="endArrow=none;dashed=1;html=1;rounded=0;" parent="1" target="vbGfuvybAaN1K-2_PYyb-247" edge="1">
          <mxGeometry width="50" height="50" relative="1" as="geometry">
            <mxPoint x="230" y="540" as="sourcePoint" />
            <mxPoint x="230" y="190" as="targetPoint" />
          </mxGeometry>
        </mxCell>
        <mxCell id="vbGfuvybAaN1K-2_PYyb-247" value="" style="rounded=0;whiteSpace=wrap;html=1;" parent="1" vertex="1">
          <mxGeometry x="225" y="200" width="10" height="30" as="geometry" />
        </mxCell>
        <mxCell id="vbGfuvybAaN1K-2_PYyb-248" value="ShowUserUI()" style="endArrow=classic;html=1;rounded=0;dashed=1;" parent="1" edge="1">
          <mxGeometry x="-0.0526" y="14" width="50" height="50" relative="1" as="geometry">
            <mxPoint x="225" y="219.5" as="sourcePoint" />
            <mxPoint x="111" y="219.5" as="targetPoint" />
            <mxPoint as="offset" />
          </mxGeometry>
        </mxCell>
        <mxCell id="vbGfuvybAaN1K-2_PYyb-249" value=":&lt;span style=&quot;font-size: 11px; text-wrap: nowrap; background-color: rgb(255, 255, 255);&quot;&gt;Register Page&lt;/span&gt;" style="rounded=1;whiteSpace=wrap;html=1;" parent="1" vertex="1">
          <mxGeometry x="320" y="142.5" width="80" height="40" as="geometry" />
        </mxCell>
        <mxCell id="vbGfuvybAaN1K-2_PYyb-250" value="" style="rounded=0;whiteSpace=wrap;html=1;" parent="1" vertex="1">
          <mxGeometry x="225" y="280" width="10" height="230" as="geometry" />
        </mxCell>
        <mxCell id="vbGfuvybAaN1K-2_PYyb-251" value="" style="endArrow=none;dashed=1;html=1;rounded=0;" parent="1" source="vbGfuvybAaN1K-2_PYyb-253" target="vbGfuvybAaN1K-2_PYyb-249" edge="1">
          <mxGeometry width="50" height="50" relative="1" as="geometry">
            <mxPoint x="359.5" y="540" as="sourcePoint" />
            <mxPoint x="359.5" y="240" as="targetPoint" />
          </mxGeometry>
        </mxCell>
        <mxCell id="vbGfuvybAaN1K-2_PYyb-252" value="" style="endArrow=none;dashed=1;html=1;rounded=0;" parent="1" source="vbGfuvybAaN1K-2_PYyb-258" target="vbGfuvybAaN1K-2_PYyb-253" edge="1">
          <mxGeometry width="50" height="50" relative="1" as="geometry">
            <mxPoint x="359.5" y="540" as="sourcePoint" />
            <mxPoint x="359.5" y="240" as="targetPoint" />
          </mxGeometry>
        </mxCell>
        <mxCell id="vbGfuvybAaN1K-2_PYyb-253" value="" style="rounded=0;whiteSpace=wrap;html=1;" parent="1" vertex="1">
          <mxGeometry x="355" y="290" width="10" height="30" as="geometry" />
        </mxCell>
        <mxCell id="vbGfuvybAaN1K-2_PYyb-254" value="ClickRegisterButton()" style="endArrow=classic;html=1;rounded=0;exitX=1.1;exitY=0.048;exitDx=0;exitDy=0;exitPerimeter=0;entryX=0;entryY=0;entryDx=0;entryDy=0;" parent="1" edge="1">
          <mxGeometry x="0.0599" y="10" width="50" height="50" relative="1" as="geometry">
            <mxPoint x="238" y="300.03999999999996" as="sourcePoint" />
            <mxPoint x="355" y="300" as="targetPoint" />
            <mxPoint as="offset" />
          </mxGeometry>
        </mxCell>
        <mxCell id="vbGfuvybAaN1K-2_PYyb-255" value="ShowUserUI()" style="endArrow=classic;html=1;rounded=0;dashed=1;" parent="1" edge="1">
          <mxGeometry x="-0.0526" y="14" width="50" height="50" relative="1" as="geometry">
            <mxPoint x="349" y="310" as="sourcePoint" />
            <mxPoint x="235" y="310" as="targetPoint" />
            <mxPoint as="offset" />
          </mxGeometry>
        </mxCell>
        <mxCell id="vbGfuvybAaN1K-2_PYyb-256" value="Register(account,&lt;div&gt;password,name,Email)&lt;/div&gt;" style="endArrow=classic;html=1;rounded=0;exitX=1.1;exitY=0.048;exitDx=0;exitDy=0;exitPerimeter=0;entryX=0;entryY=0;entryDx=0;entryDy=0;" parent="1" edge="1">
          <mxGeometry x="0.1112" y="17" width="50" height="50" relative="1" as="geometry">
            <mxPoint x="235" y="370.03999999999996" as="sourcePoint" />
            <mxPoint x="352" y="370" as="targetPoint" />
            <mxPoint as="offset" />
          </mxGeometry>
        </mxCell>
        <mxCell id="vbGfuvybAaN1K-2_PYyb-257" value="" style="endArrow=none;dashed=1;html=1;rounded=0;" parent="1" target="vbGfuvybAaN1K-2_PYyb-258" edge="1">
          <mxGeometry width="50" height="50" relative="1" as="geometry">
            <mxPoint x="359.5" y="540" as="sourcePoint" />
            <mxPoint x="360" y="320" as="targetPoint" />
          </mxGeometry>
        </mxCell>
        <mxCell id="vbGfuvybAaN1K-2_PYyb-258" value="" style="rounded=0;whiteSpace=wrap;html=1;" parent="1" vertex="1">
          <mxGeometry x="355" y="360" width="10" height="90" as="geometry" />
        </mxCell>
        <mxCell id="vbGfuvybAaN1K-2_PYyb-259" value="alt" style="shape=umlFrame;whiteSpace=wrap;html=1;pointerEvents=0;width=45;height=20;" parent="1" vertex="1">
          <mxGeometry x="50" y="382" width="385" height="78" as="geometry" />
        </mxCell>
        <mxCell id="vbGfuvybAaN1K-2_PYyb-260" value="" style="endArrow=none;dashed=1;html=1;rounded=0;exitX=0.005;exitY=0.557;exitDx=0;exitDy=0;exitPerimeter=0;entryX=0.998;entryY=0.556;entryDx=0;entryDy=0;entryPerimeter=0;" parent="1" edge="1">
          <mxGeometry width="50" height="50" relative="1" as="geometry">
            <mxPoint x="50.00499999999995" y="426.076" as="sourcePoint" />
            <mxPoint x="432.31" y="425.99800000000005" as="targetPoint" />
          </mxGeometry>
        </mxCell>
        <mxCell id="vbGfuvybAaN1K-2_PYyb-261" value="ReturnSuccess&lt;div&gt;Message()&lt;/div&gt;" style="endArrow=classic;html=1;rounded=0;dashed=1;" parent="1" edge="1">
          <mxGeometry x="-0.0526" y="14" width="50" height="50" relative="1" as="geometry">
            <mxPoint x="349" y="390" as="sourcePoint" />
            <mxPoint x="235" y="390" as="targetPoint" />
            <mxPoint as="offset" />
          </mxGeometry>
        </mxCell>
        <mxCell id="vbGfuvybAaN1K-2_PYyb-262" value="ReturnFailMessageAndBackSearchPage()" style="endArrow=classic;html=1;rounded=0;dashed=1;" parent="1" edge="1">
          <mxGeometry x="-0.0526" y="14" width="50" height="50" relative="1" as="geometry">
            <mxPoint x="803.15" y="1251" as="sourcePoint" />
            <mxPoint x="385.15" y="1251" as="targetPoint" />
            <mxPoint as="offset" />
          </mxGeometry>
        </mxCell>
        <mxCell id="vbGfuvybAaN1K-2_PYyb-263" value="[註冊成功]" style="text;html=1;align=center;verticalAlign=middle;whiteSpace=wrap;rounded=0;" parent="1" vertex="1">
          <mxGeometry x="50" y="400" width="60" height="30" as="geometry" />
        </mxCell>
        <mxCell id="vbGfuvybAaN1K-2_PYyb-264" value="[註冊失敗]" style="text;html=1;align=center;verticalAlign=middle;whiteSpace=wrap;rounded=0;" parent="1" vertex="1">
          <mxGeometry x="50" y="430" width="60" height="30" as="geometry" />
        </mxCell>
        <mxCell id="vbGfuvybAaN1K-2_PYyb-265" value="User" style="shape=umlActor;verticalLabelPosition=bottom;verticalAlign=top;html=1;outlineConnect=0;" parent="1" vertex="1">
          <mxGeometry x="590" y="100" width="30" height="60" as="geometry" />
        </mxCell>
        <mxCell id="vbGfuvybAaN1K-2_PYyb-266" value="" style="endArrow=none;dashed=1;html=1;rounded=0;" parent="1" edge="1">
          <mxGeometry width="50" height="50" relative="1" as="geometry">
            <mxPoint x="605" y="540" as="sourcePoint" />
            <mxPoint x="604.5" y="190" as="targetPoint" />
          </mxGeometry>
        </mxCell>
        <mxCell id="vbGfuvybAaN1K-2_PYyb-267" value=":UserUI" style="rounded=1;whiteSpace=wrap;html=1;" parent="1" vertex="1">
          <mxGeometry x="690" y="140" width="80" height="40" as="geometry" />
        </mxCell>
        <mxCell id="vbGfuvybAaN1K-2_PYyb-268" value="EnterLoginSystem()" style="endArrow=classic;html=1;rounded=0;entryX=0;entryY=0.333;entryDx=0;entryDy=0;entryPerimeter=0;" parent="1" target="vbGfuvybAaN1K-2_PYyb-271" edge="1">
          <mxGeometry y="10" width="50" height="50" relative="1" as="geometry">
            <mxPoint x="610" y="210" as="sourcePoint" />
            <mxPoint x="720" y="210" as="targetPoint" />
            <mxPoint as="offset" />
          </mxGeometry>
        </mxCell>
        <mxCell id="vbGfuvybAaN1K-2_PYyb-269" value="" style="endArrow=none;dashed=1;html=1;rounded=0;" parent="1" source="vbGfuvybAaN1K-2_PYyb-271" edge="1">
          <mxGeometry width="50" height="50" relative="1" as="geometry">
            <mxPoint x="730" y="540" as="sourcePoint" />
            <mxPoint x="730" y="190" as="targetPoint" />
          </mxGeometry>
        </mxCell>
        <mxCell id="vbGfuvybAaN1K-2_PYyb-270" value="" style="endArrow=none;dashed=1;html=1;rounded=0;" parent="1" target="vbGfuvybAaN1K-2_PYyb-271" edge="1">
          <mxGeometry width="50" height="50" relative="1" as="geometry">
            <mxPoint x="730" y="540" as="sourcePoint" />
            <mxPoint x="730" y="190" as="targetPoint" />
          </mxGeometry>
        </mxCell>
        <mxCell id="vbGfuvybAaN1K-2_PYyb-271" value="" style="rounded=0;whiteSpace=wrap;html=1;" parent="1" vertex="1">
          <mxGeometry x="725" y="200" width="10" height="30" as="geometry" />
        </mxCell>
        <mxCell id="vbGfuvybAaN1K-2_PYyb-272" value="ShowUserUI()" style="endArrow=classic;html=1;rounded=0;dashed=1;" parent="1" edge="1">
          <mxGeometry x="-0.0526" y="14" width="50" height="50" relative="1" as="geometry">
            <mxPoint x="725" y="219.5" as="sourcePoint" />
            <mxPoint x="611" y="219.5" as="targetPoint" />
            <mxPoint as="offset" />
          </mxGeometry>
        </mxCell>
        <mxCell id="vbGfuvybAaN1K-2_PYyb-273" value=":Login&lt;span style=&quot;font-size: 11px; text-wrap: nowrap; background-color: rgb(255, 255, 255);&quot;&gt;&amp;nbsp;Page&lt;/span&gt;" style="rounded=1;whiteSpace=wrap;html=1;" parent="1" vertex="1">
          <mxGeometry x="820" y="140" width="80" height="40" as="geometry" />
        </mxCell>
        <mxCell id="vbGfuvybAaN1K-2_PYyb-274" value="" style="rounded=0;whiteSpace=wrap;html=1;" parent="1" vertex="1">
          <mxGeometry x="725" y="280" width="10" height="230" as="geometry" />
        </mxCell>
        <mxCell id="vbGfuvybAaN1K-2_PYyb-275" value="" style="endArrow=none;dashed=1;html=1;rounded=0;" parent="1" source="vbGfuvybAaN1K-2_PYyb-277" target="vbGfuvybAaN1K-2_PYyb-273" edge="1">
          <mxGeometry width="50" height="50" relative="1" as="geometry">
            <mxPoint x="859.5" y="540" as="sourcePoint" />
            <mxPoint x="859.5" y="240" as="targetPoint" />
          </mxGeometry>
        </mxCell>
        <mxCell id="vbGfuvybAaN1K-2_PYyb-276" value="" style="endArrow=none;dashed=1;html=1;rounded=0;" parent="1" source="vbGfuvybAaN1K-2_PYyb-282" target="vbGfuvybAaN1K-2_PYyb-277" edge="1">
          <mxGeometry width="50" height="50" relative="1" as="geometry">
            <mxPoint x="859.5" y="540" as="sourcePoint" />
            <mxPoint x="859.5" y="240" as="targetPoint" />
          </mxGeometry>
        </mxCell>
        <mxCell id="vbGfuvybAaN1K-2_PYyb-277" value="" style="rounded=0;whiteSpace=wrap;html=1;" parent="1" vertex="1">
          <mxGeometry x="855" y="290" width="10" height="30" as="geometry" />
        </mxCell>
        <mxCell id="vbGfuvybAaN1K-2_PYyb-278" value="ClickLoginButton()" style="endArrow=classic;html=1;rounded=0;exitX=1.1;exitY=0.048;exitDx=0;exitDy=0;exitPerimeter=0;entryX=0;entryY=0;entryDx=0;entryDy=0;" parent="1" edge="1">
          <mxGeometry x="0.0599" y="10" width="50" height="50" relative="1" as="geometry">
            <mxPoint x="738" y="300.03999999999996" as="sourcePoint" />
            <mxPoint x="855" y="300" as="targetPoint" />
            <mxPoint as="offset" />
          </mxGeometry>
        </mxCell>
        <mxCell id="vbGfuvybAaN1K-2_PYyb-279" value="ShowUserUI()" style="endArrow=classic;html=1;rounded=0;dashed=1;" parent="1" edge="1">
          <mxGeometry x="-0.0526" y="14" width="50" height="50" relative="1" as="geometry">
            <mxPoint x="849" y="310" as="sourcePoint" />
            <mxPoint x="735" y="310" as="targetPoint" />
            <mxPoint as="offset" />
          </mxGeometry>
        </mxCell>
        <mxCell id="vbGfuvybAaN1K-2_PYyb-280" value="Login(account,&lt;div&gt;password)&lt;/div&gt;" style="endArrow=classic;html=1;rounded=0;exitX=1.1;exitY=0.048;exitDx=0;exitDy=0;exitPerimeter=0;entryX=0;entryY=0;entryDx=0;entryDy=0;" parent="1" edge="1">
          <mxGeometry x="0.1112" y="17" width="50" height="50" relative="1" as="geometry">
            <mxPoint x="735" y="370.03999999999996" as="sourcePoint" />
            <mxPoint x="852" y="370" as="targetPoint" />
            <mxPoint as="offset" />
          </mxGeometry>
        </mxCell>
        <mxCell id="vbGfuvybAaN1K-2_PYyb-281" value="" style="endArrow=none;dashed=1;html=1;rounded=0;" parent="1" target="vbGfuvybAaN1K-2_PYyb-282" edge="1">
          <mxGeometry width="50" height="50" relative="1" as="geometry">
            <mxPoint x="859.5" y="540" as="sourcePoint" />
            <mxPoint x="860" y="320" as="targetPoint" />
          </mxGeometry>
        </mxCell>
        <mxCell id="vbGfuvybAaN1K-2_PYyb-282" value="" style="rounded=0;whiteSpace=wrap;html=1;" parent="1" vertex="1">
          <mxGeometry x="855" y="360" width="10" height="110" as="geometry" />
        </mxCell>
        <mxCell id="vbGfuvybAaN1K-2_PYyb-283" value="alt" style="shape=umlFrame;whiteSpace=wrap;html=1;pointerEvents=0;width=45;height=20;" parent="1" vertex="1">
          <mxGeometry x="550" y="382" width="385" height="78" as="geometry" />
        </mxCell>
        <mxCell id="vbGfuvybAaN1K-2_PYyb-284" value="" style="endArrow=none;dashed=1;html=1;rounded=0;exitX=0.005;exitY=0.557;exitDx=0;exitDy=0;exitPerimeter=0;entryX=0.998;entryY=0.556;entryDx=0;entryDy=0;entryPerimeter=0;" parent="1" edge="1">
          <mxGeometry width="50" height="50" relative="1" as="geometry">
            <mxPoint x="550.0049999999999" y="426.076" as="sourcePoint" />
            <mxPoint x="932.31" y="425.99800000000005" as="targetPoint" />
          </mxGeometry>
        </mxCell>
        <mxCell id="vbGfuvybAaN1K-2_PYyb-285" value="ReturnSuccess&lt;div&gt;Message()&lt;/div&gt;" style="endArrow=classic;html=1;rounded=0;dashed=1;" parent="1" edge="1">
          <mxGeometry x="-0.0526" y="14" width="50" height="50" relative="1" as="geometry">
            <mxPoint x="849" y="390" as="sourcePoint" />
            <mxPoint x="735" y="390" as="targetPoint" />
            <mxPoint as="offset" />
          </mxGeometry>
        </mxCell>
        <mxCell id="vbGfuvybAaN1K-2_PYyb-286" value="ReturnFailMessage()" style="endArrow=classic;html=1;rounded=0;dashed=1;" parent="1" edge="1">
          <mxGeometry x="-0.0526" y="14" width="50" height="50" relative="1" as="geometry">
            <mxPoint x="849" y="436" as="sourcePoint" />
            <mxPoint x="735" y="436" as="targetPoint" />
            <mxPoint as="offset" />
          </mxGeometry>
        </mxCell>
        <mxCell id="vbGfuvybAaN1K-2_PYyb-287" value="[註冊成功]" style="text;html=1;align=center;verticalAlign=middle;whiteSpace=wrap;rounded=0;" parent="1" vertex="1">
          <mxGeometry x="550" y="400" width="60" height="30" as="geometry" />
        </mxCell>
        <mxCell id="vbGfuvybAaN1K-2_PYyb-288" value="[註冊失敗]" style="text;html=1;align=center;verticalAlign=middle;whiteSpace=wrap;rounded=0;" parent="1" vertex="1">
          <mxGeometry x="550" y="430" width="60" height="30" as="geometry" />
        </mxCell>
        <mxCell id="vbGfuvybAaN1K-2_PYyb-289" value="User" style="shape=umlActor;verticalLabelPosition=bottom;verticalAlign=top;html=1;outlineConnect=0;" parent="1" vertex="1">
          <mxGeometry x="1098" y="100" width="30" height="60" as="geometry" />
        </mxCell>
        <mxCell id="vbGfuvybAaN1K-2_PYyb-290" value="" style="endArrow=none;dashed=1;html=1;rounded=0;" parent="1" edge="1">
          <mxGeometry width="50" height="50" relative="1" as="geometry">
            <mxPoint x="1113" y="480" as="sourcePoint" />
            <mxPoint x="1112.5" y="190" as="targetPoint" />
          </mxGeometry>
        </mxCell>
        <mxCell id="vbGfuvybAaN1K-2_PYyb-291" value=":UserUI" style="rounded=1;whiteSpace=wrap;html=1;" parent="1" vertex="1">
          <mxGeometry x="1198" y="140" width="80" height="40" as="geometry" />
        </mxCell>
        <mxCell id="vbGfuvybAaN1K-2_PYyb-292" value="EnterForget&lt;div&gt;PasswordSystem()&lt;/div&gt;" style="endArrow=classic;html=1;rounded=0;entryX=0;entryY=0.333;entryDx=0;entryDy=0;entryPerimeter=0;" parent="1" target="vbGfuvybAaN1K-2_PYyb-295" edge="1">
          <mxGeometry y="10" width="50" height="50" relative="1" as="geometry">
            <mxPoint x="1118" y="210" as="sourcePoint" />
            <mxPoint x="1228" y="210" as="targetPoint" />
            <mxPoint as="offset" />
          </mxGeometry>
        </mxCell>
        <mxCell id="vbGfuvybAaN1K-2_PYyb-293" value="" style="endArrow=none;dashed=1;html=1;rounded=0;" parent="1" source="vbGfuvybAaN1K-2_PYyb-295" edge="1">
          <mxGeometry width="50" height="50" relative="1" as="geometry">
            <mxPoint x="1238" y="540" as="sourcePoint" />
            <mxPoint x="1238" y="190" as="targetPoint" />
          </mxGeometry>
        </mxCell>
        <mxCell id="vbGfuvybAaN1K-2_PYyb-294" value="" style="endArrow=none;dashed=1;html=1;rounded=0;" parent="1" target="vbGfuvybAaN1K-2_PYyb-295" edge="1">
          <mxGeometry width="50" height="50" relative="1" as="geometry">
            <mxPoint x="1238" y="480" as="sourcePoint" />
            <mxPoint x="1238" y="190" as="targetPoint" />
          </mxGeometry>
        </mxCell>
        <mxCell id="vbGfuvybAaN1K-2_PYyb-295" value="" style="rounded=0;whiteSpace=wrap;html=1;" parent="1" vertex="1">
          <mxGeometry x="1233" y="200" width="10" height="30" as="geometry" />
        </mxCell>
        <mxCell id="vbGfuvybAaN1K-2_PYyb-296" value="ShowUserUI()" style="endArrow=classic;html=1;rounded=0;dashed=1;" parent="1" edge="1">
          <mxGeometry x="-0.0526" y="14" width="50" height="50" relative="1" as="geometry">
            <mxPoint x="1233" y="219.5" as="sourcePoint" />
            <mxPoint x="1119" y="219.5" as="targetPoint" />
            <mxPoint as="offset" />
          </mxGeometry>
        </mxCell>
        <mxCell id="vbGfuvybAaN1K-2_PYyb-297" value=":&lt;span style=&quot;font-size: 11px; text-wrap: nowrap; background-color: rgb(255, 255, 255);&quot;&gt;Login Page&lt;/span&gt;" style="rounded=1;whiteSpace=wrap;html=1;" parent="1" vertex="1">
          <mxGeometry x="1328" y="140" width="80" height="40" as="geometry" />
        </mxCell>
        <mxCell id="vbGfuvybAaN1K-2_PYyb-298" value="" style="rounded=0;whiteSpace=wrap;html=1;" parent="1" vertex="1">
          <mxGeometry x="1233" y="280" width="10" height="130" as="geometry" />
        </mxCell>
        <mxCell id="vbGfuvybAaN1K-2_PYyb-299" value="" style="endArrow=none;dashed=1;html=1;rounded=0;" parent="1" source="vbGfuvybAaN1K-2_PYyb-301" target="vbGfuvybAaN1K-2_PYyb-297" edge="1">
          <mxGeometry width="50" height="50" relative="1" as="geometry">
            <mxPoint x="1367.5" y="540" as="sourcePoint" />
            <mxPoint x="1367.5" y="240" as="targetPoint" />
          </mxGeometry>
        </mxCell>
        <mxCell id="vbGfuvybAaN1K-2_PYyb-300" value="" style="endArrow=none;dashed=1;html=1;rounded=0;" parent="1" target="vbGfuvybAaN1K-2_PYyb-301" edge="1">
          <mxGeometry width="50" height="50" relative="1" as="geometry">
            <mxPoint x="1368" y="480" as="sourcePoint" />
            <mxPoint x="1367.5" y="240" as="targetPoint" />
          </mxGeometry>
        </mxCell>
        <mxCell id="vbGfuvybAaN1K-2_PYyb-301" value="" style="rounded=0;whiteSpace=wrap;html=1;" parent="1" vertex="1">
          <mxGeometry x="1363" y="290" width="10" height="30" as="geometry" />
        </mxCell>
        <mxCell id="vbGfuvybAaN1K-2_PYyb-302" value="ClickLoginButton()" style="endArrow=classic;html=1;rounded=0;exitX=1.1;exitY=0.048;exitDx=0;exitDy=0;exitPerimeter=0;entryX=0;entryY=0;entryDx=0;entryDy=0;" parent="1" edge="1">
          <mxGeometry x="0.0599" y="10" width="50" height="50" relative="1" as="geometry">
            <mxPoint x="1246" y="300.03999999999996" as="sourcePoint" />
            <mxPoint x="1363" y="300" as="targetPoint" />
            <mxPoint as="offset" />
          </mxGeometry>
        </mxCell>
        <mxCell id="vbGfuvybAaN1K-2_PYyb-303" value="ShowUserUI()" style="endArrow=classic;html=1;rounded=0;dashed=1;" parent="1" edge="1">
          <mxGeometry x="-0.0526" y="14" width="50" height="50" relative="1" as="geometry">
            <mxPoint x="1357" y="310" as="sourcePoint" />
            <mxPoint x="1243" y="310" as="targetPoint" />
            <mxPoint as="offset" />
          </mxGeometry>
        </mxCell>
        <mxCell id="vbGfuvybAaN1K-2_PYyb-308" value=":&lt;span style=&quot;text-wrap: nowrap;&quot;&gt;Forget&lt;/span&gt;&lt;div&gt;&lt;span style=&quot;text-wrap: nowrap; background-color: initial;&quot;&gt;Password&amp;nbsp;&lt;/span&gt;&lt;div&gt;&lt;span style=&quot;text-wrap: nowrap;&quot;&gt;Page&lt;/span&gt;&lt;/div&gt;&lt;/div&gt;" style="rounded=1;whiteSpace=wrap;html=1;" parent="1" vertex="1">
          <mxGeometry x="1470" y="140" width="80" height="45" as="geometry" />
        </mxCell>
        <mxCell id="vbGfuvybAaN1K-2_PYyb-309" value="" style="endArrow=none;dashed=1;html=1;rounded=0;entryX=0.5;entryY=1;entryDx=0;entryDy=0;" parent="1" target="vbGfuvybAaN1K-2_PYyb-308" edge="1">
          <mxGeometry width="50" height="50" relative="1" as="geometry">
            <mxPoint x="1510" y="480" as="sourcePoint" />
            <mxPoint x="1510" y="450" as="targetPoint" />
          </mxGeometry>
        </mxCell>
        <mxCell id="vbGfuvybAaN1K-2_PYyb-310" value="ClickForgetPasswordButton()" style="endArrow=classic;html=1;rounded=0;exitX=1.1;exitY=0.048;exitDx=0;exitDy=0;exitPerimeter=0;" parent="1" edge="1">
          <mxGeometry x="0.0584" y="10" width="50" height="50" relative="1" as="geometry">
            <mxPoint x="1247" y="362.03999999999996" as="sourcePoint" />
            <mxPoint x="1504" y="362" as="targetPoint" />
            <mxPoint as="offset" />
          </mxGeometry>
        </mxCell>
        <mxCell id="vbGfuvybAaN1K-2_PYyb-311" value="" style="rounded=0;whiteSpace=wrap;html=1;" parent="1" vertex="1">
          <mxGeometry x="1509" y="352" width="10" height="30" as="geometry" />
        </mxCell>
        <mxCell id="vbGfuvybAaN1K-2_PYyb-312" value="User" style="shape=umlActor;verticalLabelPosition=bottom;verticalAlign=top;html=1;outlineConnect=0;" parent="1" vertex="1">
          <mxGeometry x="110" y="820" width="30" height="60" as="geometry" />
        </mxCell>
        <mxCell id="vbGfuvybAaN1K-2_PYyb-313" value="ShowForgetPasswordPage()" style="endArrow=none;html=1;rounded=0;exitX=1.1;exitY=0.048;exitDx=0;exitDy=0;exitPerimeter=0;endFill=0;startArrow=classic;startFill=1;dashed=1;" parent="1" edge="1">
          <mxGeometry x="0.0272" y="-10" width="50" height="50" relative="1" as="geometry">
            <mxPoint x="1252" y="372.03999999999996" as="sourcePoint" />
            <mxPoint x="1509" y="372" as="targetPoint" />
            <mxPoint as="offset" />
          </mxGeometry>
        </mxCell>
        <mxCell id="vbGfuvybAaN1K-2_PYyb-314" value="" style="endArrow=none;dashed=1;html=1;rounded=0;" parent="1" edge="1">
          <mxGeometry width="50" height="50" relative="1" as="geometry">
            <mxPoint x="125" y="1330" as="sourcePoint" />
            <mxPoint x="124.5" y="840" as="targetPoint" />
          </mxGeometry>
        </mxCell>
        <mxCell id="vbGfuvybAaN1K-2_PYyb-315" value=":UserUI" style="rounded=1;whiteSpace=wrap;html=1;" parent="1" vertex="1">
          <mxGeometry x="210" y="860" width="80" height="40" as="geometry" />
        </mxCell>
        <mxCell id="vbGfuvybAaN1K-2_PYyb-316" value="EnterSearchPage()" style="endArrow=classic;html=1;rounded=0;entryX=0;entryY=0.333;entryDx=0;entryDy=0;entryPerimeter=0;" parent="1" target="vbGfuvybAaN1K-2_PYyb-319" edge="1">
          <mxGeometry x="0.0087" y="10" width="50" height="50" relative="1" as="geometry">
            <mxPoint x="130" y="930" as="sourcePoint" />
            <mxPoint x="240" y="930" as="targetPoint" />
            <mxPoint as="offset" />
          </mxGeometry>
        </mxCell>
        <mxCell id="vbGfuvybAaN1K-2_PYyb-317" value="" style="endArrow=none;dashed=1;html=1;rounded=0;" parent="1" source="vbGfuvybAaN1K-2_PYyb-319" target="vbGfuvybAaN1K-2_PYyb-315" edge="1">
          <mxGeometry width="50" height="50" relative="1" as="geometry">
            <mxPoint x="250" y="1260" as="sourcePoint" />
            <mxPoint x="250" y="910" as="targetPoint" />
          </mxGeometry>
        </mxCell>
        <mxCell id="vbGfuvybAaN1K-2_PYyb-318" value="" style="endArrow=none;dashed=1;html=1;rounded=0;" parent="1" target="vbGfuvybAaN1K-2_PYyb-319" edge="1">
          <mxGeometry width="50" height="50" relative="1" as="geometry">
            <mxPoint x="251" y="1330" as="sourcePoint" />
            <mxPoint x="250" y="910" as="targetPoint" />
          </mxGeometry>
        </mxCell>
        <mxCell id="vbGfuvybAaN1K-2_PYyb-319" value="" style="rounded=0;whiteSpace=wrap;html=1;" parent="1" vertex="1">
          <mxGeometry x="245" y="920" width="10" height="30" as="geometry" />
        </mxCell>
        <mxCell id="vbGfuvybAaN1K-2_PYyb-320" value="ShowUserUI()" style="endArrow=classic;html=1;rounded=0;dashed=1;" parent="1" edge="1">
          <mxGeometry x="-0.0526" y="14" width="50" height="50" relative="1" as="geometry">
            <mxPoint x="245" y="939.5" as="sourcePoint" />
            <mxPoint x="131" y="939.5" as="targetPoint" />
            <mxPoint as="offset" />
          </mxGeometry>
        </mxCell>
        <mxCell id="vbGfuvybAaN1K-2_PYyb-321" value=":&lt;span style=&quot;font-size: 11px; text-wrap: nowrap; background-color: rgb(255, 255, 255);&quot;&gt;Search&lt;/span&gt;&lt;span style=&quot;font-size: 11px; text-wrap: nowrap; background-color: rgb(255, 255, 255);&quot;&gt;&amp;nbsp;&lt;/span&gt;&lt;span style=&quot;background-color: rgb(255, 255, 255); font-size: 11px; text-wrap: nowrap;&quot;&gt;Page&lt;/span&gt;" style="rounded=1;whiteSpace=wrap;html=1;" parent="1" vertex="1">
          <mxGeometry x="340" y="860" width="80" height="40" as="geometry" />
        </mxCell>
        <mxCell id="vbGfuvybAaN1K-2_PYyb-322" value="" style="rounded=0;whiteSpace=wrap;html=1;" parent="1" vertex="1">
          <mxGeometry x="245" y="1000" width="10" height="300" as="geometry" />
        </mxCell>
        <mxCell id="vbGfuvybAaN1K-2_PYyb-323" value="" style="endArrow=none;dashed=1;html=1;rounded=0;" parent="1" target="vbGfuvybAaN1K-2_PYyb-402" edge="1" source="hhbA0WCjUp_SG_yH-NSP-52">
          <mxGeometry width="50" height="50" relative="1" as="geometry">
            <mxPoint x="381" y="1570" as="sourcePoint" />
            <mxPoint x="380" y="1040" as="targetPoint" />
          </mxGeometry>
        </mxCell>
        <mxCell id="vbGfuvybAaN1K-2_PYyb-324" value="EnterVerifyEmail()" style="endArrow=classic;html=1;rounded=0;exitX=1.1;exitY=0.048;exitDx=0;exitDy=0;exitPerimeter=0;" parent="1" edge="1">
          <mxGeometry x="0.0584" y="10" width="50" height="50" relative="1" as="geometry">
            <mxPoint x="1243" y="404.53999999999996" as="sourcePoint" />
            <mxPoint x="1640" y="404.5" as="targetPoint" />
            <mxPoint as="offset" />
          </mxGeometry>
        </mxCell>
        <mxCell id="vbGfuvybAaN1K-2_PYyb-325" value=":&lt;span style=&quot;text-wrap: nowrap;&quot;&gt;system&lt;/span&gt;" style="rounded=1;whiteSpace=wrap;html=1;" parent="1" vertex="1">
          <mxGeometry x="1610" y="140" width="80" height="45" as="geometry" />
        </mxCell>
        <mxCell id="vbGfuvybAaN1K-2_PYyb-326" value="" style="endArrow=none;dashed=1;html=1;rounded=0;entryX=0.5;entryY=1;entryDx=0;entryDy=0;" parent="1" source="vbGfuvybAaN1K-2_PYyb-328" target="vbGfuvybAaN1K-2_PYyb-325" edge="1">
          <mxGeometry width="50" height="50" relative="1" as="geometry">
            <mxPoint x="1650" y="780" as="sourcePoint" />
            <mxPoint x="1650" y="450" as="targetPoint" />
          </mxGeometry>
        </mxCell>
        <mxCell id="vbGfuvybAaN1K-2_PYyb-327" value="" style="endArrow=none;dashed=1;html=1;rounded=0;entryX=0.5;entryY=1;entryDx=0;entryDy=0;" parent="1" target="vbGfuvybAaN1K-2_PYyb-328" edge="1">
          <mxGeometry width="50" height="50" relative="1" as="geometry">
            <mxPoint x="1649" y="480" as="sourcePoint" />
            <mxPoint x="1650" y="185" as="targetPoint" />
          </mxGeometry>
        </mxCell>
        <mxCell id="vbGfuvybAaN1K-2_PYyb-328" value="" style="rounded=0;whiteSpace=wrap;html=1;" parent="1" vertex="1">
          <mxGeometry x="1644" y="390" width="10" height="50" as="geometry" />
        </mxCell>
        <mxCell id="vbGfuvybAaN1K-2_PYyb-329" value="ShowResetPasswordToEmail()" style="endArrow=classic;html=1;rounded=0;dashed=1;" parent="1" edge="1">
          <mxGeometry x="-0.0526" y="14" width="50" height="50" relative="1" as="geometry">
            <mxPoint x="1639" y="429" as="sourcePoint" />
            <mxPoint x="1117" y="429" as="targetPoint" />
            <mxPoint as="offset" />
          </mxGeometry>
        </mxCell>
        <mxCell id="vbGfuvybAaN1K-2_PYyb-330" value="User" style="shape=umlActor;verticalLabelPosition=bottom;verticalAlign=top;html=1;outlineConnect=0;" parent="1" vertex="1">
          <mxGeometry x="1820" y="100" width="30" height="60" as="geometry" />
        </mxCell>
        <mxCell id="vbGfuvybAaN1K-2_PYyb-331" value="" style="endArrow=none;dashed=1;html=1;rounded=0;" parent="1" edge="1">
          <mxGeometry width="50" height="50" relative="1" as="geometry">
            <mxPoint x="1835" y="690" as="sourcePoint" />
            <mxPoint x="1834.5" y="190" as="targetPoint" />
          </mxGeometry>
        </mxCell>
        <mxCell id="vbGfuvybAaN1K-2_PYyb-332" value=":UserUI" style="rounded=1;whiteSpace=wrap;html=1;" parent="1" vertex="1">
          <mxGeometry x="1920" y="140" width="80" height="40" as="geometry" />
        </mxCell>
        <mxCell id="vbGfuvybAaN1K-2_PYyb-333" value="EnterModifySystem()" style="endArrow=classic;html=1;rounded=0;entryX=0;entryY=0.333;entryDx=0;entryDy=0;entryPerimeter=0;" parent="1" target="vbGfuvybAaN1K-2_PYyb-336" edge="1">
          <mxGeometry y="10" width="50" height="50" relative="1" as="geometry">
            <mxPoint x="1840" y="210" as="sourcePoint" />
            <mxPoint x="1950" y="210" as="targetPoint" />
            <mxPoint as="offset" />
          </mxGeometry>
        </mxCell>
        <mxCell id="vbGfuvybAaN1K-2_PYyb-334" value="" style="endArrow=none;dashed=1;html=1;rounded=0;" parent="1" source="vbGfuvybAaN1K-2_PYyb-336" edge="1">
          <mxGeometry width="50" height="50" relative="1" as="geometry">
            <mxPoint x="1960" y="540" as="sourcePoint" />
            <mxPoint x="1960" y="190" as="targetPoint" />
          </mxGeometry>
        </mxCell>
        <mxCell id="vbGfuvybAaN1K-2_PYyb-335" value="" style="endArrow=none;dashed=1;html=1;rounded=0;" parent="1" target="vbGfuvybAaN1K-2_PYyb-336" edge="1">
          <mxGeometry width="50" height="50" relative="1" as="geometry">
            <mxPoint x="1960" y="690" as="sourcePoint" />
            <mxPoint x="1960" y="190" as="targetPoint" />
          </mxGeometry>
        </mxCell>
        <mxCell id="vbGfuvybAaN1K-2_PYyb-336" value="" style="rounded=0;whiteSpace=wrap;html=1;" parent="1" vertex="1">
          <mxGeometry x="1955" y="200" width="10" height="30" as="geometry" />
        </mxCell>
        <mxCell id="vbGfuvybAaN1K-2_PYyb-337" value="ShowUserUI()" style="endArrow=classic;html=1;rounded=0;dashed=1;" parent="1" edge="1">
          <mxGeometry x="-0.0526" y="14" width="50" height="50" relative="1" as="geometry">
            <mxPoint x="1955" y="219.5" as="sourcePoint" />
            <mxPoint x="1841" y="219.5" as="targetPoint" />
            <mxPoint as="offset" />
          </mxGeometry>
        </mxCell>
        <mxCell id="vbGfuvybAaN1K-2_PYyb-338" value=":Login&lt;span style=&quot;font-size: 11px; text-wrap: nowrap; background-color: rgb(255, 255, 255);&quot;&gt;&amp;nbsp;Page&lt;/span&gt;" style="rounded=1;whiteSpace=wrap;html=1;" parent="1" vertex="1">
          <mxGeometry x="2050" y="140" width="80" height="40" as="geometry" />
        </mxCell>
        <mxCell id="vbGfuvybAaN1K-2_PYyb-339" value="" style="rounded=0;whiteSpace=wrap;html=1;" parent="1" vertex="1">
          <mxGeometry x="1955" y="280" width="10" height="390" as="geometry" />
        </mxCell>
        <mxCell id="vbGfuvybAaN1K-2_PYyb-340" value="" style="endArrow=none;dashed=1;html=1;rounded=0;" parent="1" source="vbGfuvybAaN1K-2_PYyb-342" target="vbGfuvybAaN1K-2_PYyb-338" edge="1">
          <mxGeometry width="50" height="50" relative="1" as="geometry">
            <mxPoint x="2089.5" y="540" as="sourcePoint" />
            <mxPoint x="2089.5" y="240" as="targetPoint" />
          </mxGeometry>
        </mxCell>
        <mxCell id="vbGfuvybAaN1K-2_PYyb-341" value="" style="endArrow=none;dashed=1;html=1;rounded=0;" parent="1" source="vbGfuvybAaN1K-2_PYyb-347" target="vbGfuvybAaN1K-2_PYyb-342" edge="1">
          <mxGeometry width="50" height="50" relative="1" as="geometry">
            <mxPoint x="2089.5" y="540" as="sourcePoint" />
            <mxPoint x="2089.5" y="240" as="targetPoint" />
          </mxGeometry>
        </mxCell>
        <mxCell id="vbGfuvybAaN1K-2_PYyb-342" value="" style="rounded=0;whiteSpace=wrap;html=1;" parent="1" vertex="1">
          <mxGeometry x="2085" y="290" width="10" height="30" as="geometry" />
        </mxCell>
        <mxCell id="vbGfuvybAaN1K-2_PYyb-343" value="ClickLoginButton()" style="endArrow=classic;html=1;rounded=0;exitX=1.1;exitY=0.048;exitDx=0;exitDy=0;exitPerimeter=0;entryX=0;entryY=0;entryDx=0;entryDy=0;" parent="1" edge="1">
          <mxGeometry x="0.0599" y="10" width="50" height="50" relative="1" as="geometry">
            <mxPoint x="1968" y="300.03999999999996" as="sourcePoint" />
            <mxPoint x="2085" y="300" as="targetPoint" />
            <mxPoint as="offset" />
          </mxGeometry>
        </mxCell>
        <mxCell id="vbGfuvybAaN1K-2_PYyb-344" value="ShowUserUI()" style="endArrow=classic;html=1;rounded=0;dashed=1;" parent="1" edge="1">
          <mxGeometry x="-0.0526" y="14" width="50" height="50" relative="1" as="geometry">
            <mxPoint x="2079" y="310" as="sourcePoint" />
            <mxPoint x="1965" y="310" as="targetPoint" />
            <mxPoint as="offset" />
          </mxGeometry>
        </mxCell>
        <mxCell id="vbGfuvybAaN1K-2_PYyb-345" value="Login(account,&lt;div&gt;password)&lt;/div&gt;" style="endArrow=classic;html=1;rounded=0;exitX=1.1;exitY=0.048;exitDx=0;exitDy=0;exitPerimeter=0;entryX=0;entryY=0;entryDx=0;entryDy=0;" parent="1" edge="1">
          <mxGeometry x="0.1112" y="17" width="50" height="50" relative="1" as="geometry">
            <mxPoint x="1965" y="370.03999999999996" as="sourcePoint" />
            <mxPoint x="2082" y="370" as="targetPoint" />
            <mxPoint as="offset" />
          </mxGeometry>
        </mxCell>
        <mxCell id="vbGfuvybAaN1K-2_PYyb-346" value="" style="endArrow=none;dashed=1;html=1;rounded=0;" parent="1" target="vbGfuvybAaN1K-2_PYyb-347" edge="1">
          <mxGeometry width="50" height="50" relative="1" as="geometry">
            <mxPoint x="2090" y="690" as="sourcePoint" />
            <mxPoint x="2090" y="320" as="targetPoint" />
          </mxGeometry>
        </mxCell>
        <mxCell id="vbGfuvybAaN1K-2_PYyb-347" value="" style="rounded=0;whiteSpace=wrap;html=1;" parent="1" vertex="1">
          <mxGeometry x="2085" y="360" width="10" height="110" as="geometry" />
        </mxCell>
        <mxCell id="vbGfuvybAaN1K-2_PYyb-348" value="alt" style="shape=umlFrame;whiteSpace=wrap;html=1;pointerEvents=0;width=45;height=20;" parent="1" vertex="1">
          <mxGeometry x="1780" y="382" width="385" height="78" as="geometry" />
        </mxCell>
        <mxCell id="vbGfuvybAaN1K-2_PYyb-349" value="" style="endArrow=none;dashed=1;html=1;rounded=0;exitX=0.005;exitY=0.557;exitDx=0;exitDy=0;exitPerimeter=0;entryX=0.998;entryY=0.556;entryDx=0;entryDy=0;entryPerimeter=0;" parent="1" edge="1">
          <mxGeometry width="50" height="50" relative="1" as="geometry">
            <mxPoint x="1780.0049999999999" y="426.076" as="sourcePoint" />
            <mxPoint x="2162.31" y="425.99800000000005" as="targetPoint" />
          </mxGeometry>
        </mxCell>
        <mxCell id="vbGfuvybAaN1K-2_PYyb-350" value="ReturnSuccess&lt;div&gt;Message()&lt;/div&gt;" style="endArrow=classic;html=1;rounded=0;dashed=1;" parent="1" edge="1">
          <mxGeometry x="-0.0526" y="14" width="50" height="50" relative="1" as="geometry">
            <mxPoint x="2079" y="390" as="sourcePoint" />
            <mxPoint x="1965" y="390" as="targetPoint" />
            <mxPoint as="offset" />
          </mxGeometry>
        </mxCell>
        <mxCell id="vbGfuvybAaN1K-2_PYyb-351" value="ModifyFailed" style="endArrow=classic;html=1;rounded=0;dashed=1;" parent="1" edge="1">
          <mxGeometry x="-0.056" y="14" width="50" height="50" relative="1" as="geometry">
            <mxPoint x="2350" y="650" as="sourcePoint" />
            <mxPoint x="2225" y="650" as="targetPoint" />
            <mxPoint as="offset" />
          </mxGeometry>
        </mxCell>
        <mxCell id="vbGfuvybAaN1K-2_PYyb-352" value="[註冊成功]" style="text;html=1;align=center;verticalAlign=middle;whiteSpace=wrap;rounded=0;" parent="1" vertex="1">
          <mxGeometry x="1780" y="400" width="60" height="30" as="geometry" />
        </mxCell>
        <mxCell id="vbGfuvybAaN1K-2_PYyb-353" value="[註冊失敗]" style="text;html=1;align=center;verticalAlign=middle;whiteSpace=wrap;rounded=0;" parent="1" vertex="1">
          <mxGeometry x="1780" y="430" width="60" height="30" as="geometry" />
        </mxCell>
        <mxCell id="vbGfuvybAaN1K-2_PYyb-354" value=":&lt;span style=&quot;text-wrap: nowrap;&quot;&gt;Modify&lt;/span&gt;&lt;div&gt;&lt;span style=&quot;text-wrap: nowrap;&quot;&gt;Information&lt;/span&gt;&lt;span style=&quot;background-color: initial; text-wrap: nowrap;&quot;&gt;&amp;nbsp;&lt;/span&gt;&lt;div&gt;&lt;div&gt;&lt;span style=&quot;text-wrap: nowrap;&quot;&gt;Page&lt;/span&gt;&lt;/div&gt;&lt;/div&gt;&lt;/div&gt;" style="rounded=1;whiteSpace=wrap;html=1;" parent="1" vertex="1">
          <mxGeometry x="2180" y="140" width="80" height="45" as="geometry" />
        </mxCell>
        <mxCell id="vbGfuvybAaN1K-2_PYyb-355" value="" style="endArrow=none;dashed=1;html=1;rounded=0;entryX=0.5;entryY=1;entryDx=0;entryDy=0;" parent="1" source="vbGfuvybAaN1K-2_PYyb-372" target="vbGfuvybAaN1K-2_PYyb-354" edge="1">
          <mxGeometry width="50" height="50" relative="1" as="geometry">
            <mxPoint x="2220" y="630" as="sourcePoint" />
            <mxPoint x="2220" y="450" as="targetPoint" />
          </mxGeometry>
        </mxCell>
        <mxCell id="vbGfuvybAaN1K-2_PYyb-356" value=":&lt;span style=&quot;text-wrap: nowrap;&quot;&gt;system&lt;/span&gt;" style="rounded=1;whiteSpace=wrap;html=1;" parent="1" vertex="1">
          <mxGeometry x="2320" y="140" width="80" height="45" as="geometry" />
        </mxCell>
        <mxCell id="vbGfuvybAaN1K-2_PYyb-357" value="" style="endArrow=none;dashed=1;html=1;rounded=0;entryX=0.5;entryY=1;entryDx=0;entryDy=0;" parent="1" source="vbGfuvybAaN1K-2_PYyb-370" target="vbGfuvybAaN1K-2_PYyb-356" edge="1">
          <mxGeometry width="50" height="50" relative="1" as="geometry">
            <mxPoint x="2360" y="630" as="sourcePoint" />
            <mxPoint x="2360" y="450" as="targetPoint" />
          </mxGeometry>
        </mxCell>
        <mxCell id="vbGfuvybAaN1K-2_PYyb-358" value="修改資料" style="text;html=1;align=center;verticalAlign=middle;whiteSpace=wrap;rounded=0;fontSize=20;" parent="1" vertex="1">
          <mxGeometry x="1965" y="40" width="85" height="30" as="geometry" />
        </mxCell>
        <mxCell id="vbGfuvybAaN1K-2_PYyb-359" value="ClickSearchButton()" style="endArrow=classic;html=1;rounded=0;" parent="1" edge="1">
          <mxGeometry x="0.0599" y="10" width="50" height="50" relative="1" as="geometry">
            <mxPoint x="255" y="1010" as="sourcePoint" />
            <mxPoint x="377" y="1010" as="targetPoint" />
            <mxPoint as="offset" />
          </mxGeometry>
        </mxCell>
        <mxCell id="vbGfuvybAaN1K-2_PYyb-360" value="ReturnSuccess&lt;div&gt;MessageAndShowSearchResults()&lt;/div&gt;" style="endArrow=classic;html=1;rounded=0;dashed=1;entryX=1.18;entryY=0.663;entryDx=0;entryDy=0;entryPerimeter=0;" parent="1" edge="1" target="vbGfuvybAaN1K-2_PYyb-322">
          <mxGeometry x="-0.0526" y="14" width="50" height="50" relative="1" as="geometry">
            <mxPoint x="804.15" y="1200" as="sourcePoint" />
            <mxPoint x="391.15" y="1200" as="targetPoint" />
            <mxPoint as="offset" />
          </mxGeometry>
        </mxCell>
        <mxCell id="vbGfuvybAaN1K-2_PYyb-361" value="ReturnFailMessage()" style="endArrow=classic;html=1;rounded=0;dashed=1;" parent="1" edge="1">
          <mxGeometry x="-0.0526" y="14" width="50" height="50" relative="1" as="geometry">
            <mxPoint x="359" y="446" as="sourcePoint" />
            <mxPoint x="245" y="446" as="targetPoint" />
            <mxPoint as="offset" />
          </mxGeometry>
        </mxCell>
        <mxCell id="vbGfuvybAaN1K-2_PYyb-362" value="[查詢成功]" style="text;html=1;align=center;verticalAlign=middle;whiteSpace=wrap;rounded=0;" parent="1" vertex="1">
          <mxGeometry x="185.15" y="1210" width="60" height="30" as="geometry" />
        </mxCell>
        <mxCell id="vbGfuvybAaN1K-2_PYyb-363" value="[查詢失敗]" style="text;html=1;align=center;verticalAlign=middle;whiteSpace=wrap;rounded=0;" parent="1" vertex="1">
          <mxGeometry x="184.15" y="1245" width="60" height="30" as="geometry" />
        </mxCell>
        <mxCell id="vbGfuvybAaN1K-2_PYyb-364" value="ClickModifyInformationButton()" style="endArrow=classic;html=1;rounded=0;" parent="1" edge="1">
          <mxGeometry x="0.0584" y="10" width="50" height="50" relative="1" as="geometry">
            <mxPoint x="1970" y="530" as="sourcePoint" />
            <mxPoint x="2211" y="530" as="targetPoint" />
            <mxPoint as="offset" />
          </mxGeometry>
        </mxCell>
        <mxCell id="vbGfuvybAaN1K-2_PYyb-365" value="" style="rounded=0;whiteSpace=wrap;html=1;" parent="1" vertex="1">
          <mxGeometry x="2216" y="520" width="10" height="30" as="geometry" />
        </mxCell>
        <mxCell id="vbGfuvybAaN1K-2_PYyb-366" value="ShowModifyInformationPage()" style="endArrow=none;html=1;rounded=0;endFill=0;startArrow=classic;startFill=1;dashed=1;" parent="1" edge="1">
          <mxGeometry x="0.0244" y="-10" width="50" height="50" relative="1" as="geometry">
            <mxPoint x="1970" y="540" as="sourcePoint" />
            <mxPoint x="2216" y="540" as="targetPoint" />
            <mxPoint as="offset" />
          </mxGeometry>
        </mxCell>
        <mxCell id="vbGfuvybAaN1K-2_PYyb-368" value="ModifyInformation(account,password,name,Email)" style="endArrow=classic;html=1;rounded=0;exitX=1.1;exitY=0.048;exitDx=0;exitDy=0;exitPerimeter=0;" parent="1" edge="1">
          <mxGeometry x="0.0584" y="10" width="50" height="50" relative="1" as="geometry">
            <mxPoint x="1965" y="584.04" as="sourcePoint" />
            <mxPoint x="2210" y="584" as="targetPoint" />
            <mxPoint as="offset" />
          </mxGeometry>
        </mxCell>
        <mxCell id="vbGfuvybAaN1K-2_PYyb-369" value="" style="endArrow=none;dashed=1;html=1;rounded=0;entryX=0.5;entryY=1;entryDx=0;entryDy=0;" parent="1" target="vbGfuvybAaN1K-2_PYyb-370" edge="1">
          <mxGeometry width="50" height="50" relative="1" as="geometry">
            <mxPoint x="2360" y="690" as="sourcePoint" />
            <mxPoint x="2360" y="185" as="targetPoint" />
          </mxGeometry>
        </mxCell>
        <mxCell id="vbGfuvybAaN1K-2_PYyb-370" value="" style="rounded=0;whiteSpace=wrap;html=1;" parent="1" vertex="1">
          <mxGeometry x="2355" y="580" width="10" height="90" as="geometry" />
        </mxCell>
        <mxCell id="vbGfuvybAaN1K-2_PYyb-371" value="" style="endArrow=none;dashed=1;html=1;rounded=0;entryX=0.5;entryY=1;entryDx=0;entryDy=0;" parent="1" target="vbGfuvybAaN1K-2_PYyb-372" edge="1">
          <mxGeometry width="50" height="50" relative="1" as="geometry">
            <mxPoint x="2220" y="690" as="sourcePoint" />
            <mxPoint x="2220" y="185" as="targetPoint" />
          </mxGeometry>
        </mxCell>
        <mxCell id="vbGfuvybAaN1K-2_PYyb-372" value="" style="rounded=0;whiteSpace=wrap;html=1;" parent="1" vertex="1">
          <mxGeometry x="2215" y="580" width="10" height="90" as="geometry" />
        </mxCell>
        <mxCell id="vbGfuvybAaN1K-2_PYyb-373" value="SendModifyRequest()" style="endArrow=classic;html=1;rounded=0;exitX=1.1;exitY=0.048;exitDx=0;exitDy=0;exitPerimeter=0;" parent="1" edge="1">
          <mxGeometry x="0.0584" y="10" width="50" height="50" relative="1" as="geometry">
            <mxPoint x="2225" y="585.04" as="sourcePoint" />
            <mxPoint x="2351" y="585" as="targetPoint" />
            <mxPoint as="offset" />
          </mxGeometry>
        </mxCell>
        <mxCell id="vbGfuvybAaN1K-2_PYyb-374" value=":ChooseCity&lt;span style=&quot;font-size: 11px; text-wrap: nowrap; background-color: rgb(255, 255, 255);&quot;&gt;&amp;nbsp;&lt;/span&gt;&lt;div&gt;&lt;span style=&quot;font-size: 11px; text-wrap: nowrap; background-color: rgb(255, 255, 255);&quot;&gt;Page&lt;/span&gt;&lt;/div&gt;" style="rounded=1;whiteSpace=wrap;html=1;" parent="1" vertex="1">
          <mxGeometry x="486.5" y="860" width="80" height="40" as="geometry" />
        </mxCell>
        <mxCell id="vbGfuvybAaN1K-2_PYyb-375" value="ModifySuccessful" style="endArrow=classic;html=1;rounded=0;dashed=1;entryX=1;entryY=0.25;entryDx=0;entryDy=0;" parent="1" edge="1">
          <mxGeometry x="-0.0526" y="14" width="50" height="50" relative="1" as="geometry">
            <mxPoint x="2350" y="610.5" as="sourcePoint" />
            <mxPoint x="2225" y="610" as="targetPoint" />
            <mxPoint as="offset" />
          </mxGeometry>
        </mxCell>
        <mxCell id="vbGfuvybAaN1K-2_PYyb-376" value="ReturnFailMessage()" style="endArrow=classic;html=1;rounded=0;dashed=1;" parent="1" edge="1">
          <mxGeometry x="-0.0526" y="14" width="50" height="50" relative="1" as="geometry">
            <mxPoint x="2081" y="437" as="sourcePoint" />
            <mxPoint x="1967" y="437" as="targetPoint" />
            <mxPoint as="offset" />
          </mxGeometry>
        </mxCell>
        <mxCell id="vbGfuvybAaN1K-2_PYyb-377" value="" style="endArrow=none;dashed=1;html=1;rounded=0;entryX=0.5;entryY=1;entryDx=0;entryDy=0;" parent="1" target="vbGfuvybAaN1K-2_PYyb-374" edge="1" source="hhbA0WCjUp_SG_yH-NSP-41">
          <mxGeometry width="50" height="50" relative="1" as="geometry">
            <mxPoint x="530" y="1460" as="sourcePoint" />
            <mxPoint x="521" y="900" as="targetPoint" />
          </mxGeometry>
        </mxCell>
        <mxCell id="vbGfuvybAaN1K-2_PYyb-378" value="ReturnFailMessage" style="endArrow=classic;html=1;rounded=0;dashed=1;entryX=0.98;entryY=0.921;entryDx=0;entryDy=0;entryPerimeter=0;" parent="1" edge="1">
          <mxGeometry x="-0.056" y="14" width="50" height="50" relative="1" as="geometry">
            <mxPoint x="2216.2" y="650" as="sourcePoint" />
            <mxPoint x="1965.0000000000002" y="650.19" as="targetPoint" />
            <mxPoint as="offset" />
          </mxGeometry>
        </mxCell>
        <mxCell id="vbGfuvybAaN1K-2_PYyb-379" value="ReturnSuccessMessage" style="endArrow=classic;html=1;rounded=0;dashed=1;entryX=0.82;entryY=0.847;entryDx=0;entryDy=0;entryPerimeter=0;" parent="1" target="vbGfuvybAaN1K-2_PYyb-339" edge="1">
          <mxGeometry x="-0.0526" y="14" width="50" height="50" relative="1" as="geometry">
            <mxPoint x="2216" y="610.5" as="sourcePoint" />
            <mxPoint x="1970" y="610" as="targetPoint" />
            <mxPoint as="offset" />
          </mxGeometry>
        </mxCell>
        <mxCell id="vbGfuvybAaN1K-2_PYyb-380" value="alt" style="shape=umlFrame;whiteSpace=wrap;html=1;pointerEvents=0;width=45;height=20;" parent="1" vertex="1">
          <mxGeometry x="1885" y="590" width="495" height="90" as="geometry" />
        </mxCell>
        <mxCell id="vbGfuvybAaN1K-2_PYyb-381" value="" style="endArrow=none;dashed=1;html=1;rounded=0;exitX=0.005;exitY=0.557;exitDx=0;exitDy=0;exitPerimeter=0;" parent="1" edge="1">
          <mxGeometry width="50" height="50" relative="1" as="geometry">
            <mxPoint x="1885.0049999999999" y="640.076" as="sourcePoint" />
            <mxPoint x="2380" y="640" as="targetPoint" />
          </mxGeometry>
        </mxCell>
        <mxCell id="vbGfuvybAaN1K-2_PYyb-382" value="[修改成功]" style="text;html=1;align=center;verticalAlign=middle;whiteSpace=wrap;rounded=0;" parent="1" vertex="1">
          <mxGeometry x="1891" y="609" width="60" height="30" as="geometry" />
        </mxCell>
        <mxCell id="vbGfuvybAaN1K-2_PYyb-383" value="[修改失敗]" style="text;html=1;align=center;verticalAlign=middle;whiteSpace=wrap;rounded=0;" parent="1" vertex="1">
          <mxGeometry x="1891" y="639" width="60" height="30" as="geometry" />
        </mxCell>
        <mxCell id="vbGfuvybAaN1K-2_PYyb-384" value="註冊" style="text;html=1;align=center;verticalAlign=middle;whiteSpace=wrap;rounded=0;fontSize=20;" parent="1" vertex="1">
          <mxGeometry x="164" y="50" width="46" height="30" as="geometry" />
        </mxCell>
        <mxCell id="vbGfuvybAaN1K-2_PYyb-385" value="&lt;font style=&quot;font-size: 20px;&quot;&gt;登入&lt;/font&gt;" style="text;html=1;align=center;verticalAlign=middle;whiteSpace=wrap;rounded=0;" parent="1" vertex="1">
          <mxGeometry x="712.5" y="50" width="60" height="30" as="geometry" />
        </mxCell>
        <mxCell id="vbGfuvybAaN1K-2_PYyb-386" value="&lt;font style=&quot;font-size: 20px;&quot;&gt;忘記密碼&lt;/font&gt;" style="text;html=1;align=center;verticalAlign=middle;whiteSpace=wrap;rounded=0;" parent="1" vertex="1">
          <mxGeometry x="1328" y="50" width="100" height="30" as="geometry" />
        </mxCell>
        <mxCell id="vbGfuvybAaN1K-2_PYyb-389" value="User" style="shape=umlActor;verticalLabelPosition=bottom;verticalAlign=top;html=1;outlineConnect=0;" parent="1" vertex="1">
          <mxGeometry x="1096" y="820" width="30" height="60" as="geometry" />
        </mxCell>
        <mxCell id="vbGfuvybAaN1K-2_PYyb-390" value="" style="endArrow=none;dashed=1;html=1;rounded=0;" parent="1" edge="1">
          <mxGeometry width="50" height="50" relative="1" as="geometry">
            <mxPoint x="1110" y="1160" as="sourcePoint" />
            <mxPoint x="1110.5" y="910" as="targetPoint" />
          </mxGeometry>
        </mxCell>
        <mxCell id="vbGfuvybAaN1K-2_PYyb-391" value=":UserUI" style="rounded=1;whiteSpace=wrap;html=1;" parent="1" vertex="1">
          <mxGeometry x="1196" y="860" width="80" height="40" as="geometry" />
        </mxCell>
        <mxCell id="vbGfuvybAaN1K-2_PYyb-392" value="" style="endArrow=none;dashed=1;html=1;rounded=0;entryX=0.5;entryY=1;entryDx=0;entryDy=0;" parent="1" target="vbGfuvybAaN1K-2_PYyb-391" edge="1">
          <mxGeometry width="50" height="50" relative="1" as="geometry">
            <mxPoint x="1236" y="1160" as="sourcePoint" />
            <mxPoint x="1236" y="910" as="targetPoint" />
          </mxGeometry>
        </mxCell>
        <mxCell id="vbGfuvybAaN1K-2_PYyb-393" value=":KeepPage" style="rounded=1;whiteSpace=wrap;html=1;" parent="1" vertex="1">
          <mxGeometry x="1440" y="860" width="80" height="40" as="geometry" />
        </mxCell>
        <mxCell id="vbGfuvybAaN1K-2_PYyb-394" value="" style="endArrow=none;dashed=1;html=1;rounded=0;" parent="1" source="hhbA0WCjUp_SG_yH-NSP-71" edge="1">
          <mxGeometry width="50" height="50" relative="1" as="geometry">
            <mxPoint x="1483" y="1230" as="sourcePoint" />
            <mxPoint x="1483" y="900" as="targetPoint" />
          </mxGeometry>
        </mxCell>
        <mxCell id="vbGfuvybAaN1K-2_PYyb-396" value="EnterKeepSystem()" style="endArrow=classic;html=1;rounded=0;" parent="1" edge="1">
          <mxGeometry x="0.0087" y="10" width="50" height="50" relative="1" as="geometry">
            <mxPoint x="1116" y="930" as="sourcePoint" />
            <mxPoint x="1230" y="930" as="targetPoint" />
            <mxPoint as="offset" />
          </mxGeometry>
        </mxCell>
        <mxCell id="vbGfuvybAaN1K-2_PYyb-397" value="" style="rounded=0;whiteSpace=wrap;html=1;" parent="1" vertex="1">
          <mxGeometry x="1231" y="920" width="10" height="200" as="geometry" />
        </mxCell>
        <mxCell id="vbGfuvybAaN1K-2_PYyb-398" value="ShowUserUI()" style="endArrow=classic;html=1;rounded=0;dashed=1;" parent="1" edge="1">
          <mxGeometry x="-0.0526" y="14" width="50" height="50" relative="1" as="geometry">
            <mxPoint x="1231" y="939.5" as="sourcePoint" />
            <mxPoint x="1117" y="939.5" as="targetPoint" />
            <mxPoint as="offset" />
          </mxGeometry>
        </mxCell>
        <mxCell id="vbGfuvybAaN1K-2_PYyb-399" value="" style="endArrow=none;dashed=1;html=1;rounded=0;entryX=0.5;entryY=1;entryDx=0;entryDy=0;" parent="1" source="vbGfuvybAaN1K-2_PYyb-404" target="vbGfuvybAaN1K-2_PYyb-321" edge="1">
          <mxGeometry width="50" height="50" relative="1" as="geometry">
            <mxPoint x="380" y="1080" as="sourcePoint" />
            <mxPoint x="381" y="900" as="targetPoint" />
          </mxGeometry>
        </mxCell>
        <mxCell id="vbGfuvybAaN1K-2_PYyb-400" value="ShowSearchPage()" style="endArrow=classic;html=1;rounded=0;dashed=1;" parent="1" edge="1">
          <mxGeometry x="-0.0226" y="10" width="50" height="50" relative="1" as="geometry">
            <mxPoint x="371" y="1020" as="sourcePoint" />
            <mxPoint x="255" y="1020" as="targetPoint" />
            <mxPoint as="offset" />
          </mxGeometry>
        </mxCell>
        <mxCell id="vbGfuvybAaN1K-2_PYyb-402" value="" style="rounded=0;whiteSpace=wrap;html=1;" parent="1" vertex="1">
          <mxGeometry x="375" y="1050" width="10" height="120" as="geometry" />
        </mxCell>
        <mxCell id="vbGfuvybAaN1K-2_PYyb-403" value="" style="endArrow=none;dashed=1;html=1;rounded=0;entryX=0.437;entryY=1.035;entryDx=0;entryDy=0;entryPerimeter=0;" parent="1" source="vbGfuvybAaN1K-2_PYyb-402" target="vbGfuvybAaN1K-2_PYyb-404" edge="1">
          <mxGeometry width="50" height="50" relative="1" as="geometry">
            <mxPoint x="380" y="1080" as="sourcePoint" />
            <mxPoint x="380" y="901" as="targetPoint" />
          </mxGeometry>
        </mxCell>
        <mxCell id="vbGfuvybAaN1K-2_PYyb-404" value="" style="rounded=0;whiteSpace=wrap;html=1;" parent="1" vertex="1">
          <mxGeometry x="375" y="1000" width="10" height="30" as="geometry" />
        </mxCell>
        <mxCell id="vbGfuvybAaN1K-2_PYyb-405" value="ClickChooseCityButton()" style="endArrow=classic;html=1;rounded=0;" parent="1" edge="1">
          <mxGeometry x="0.0599" y="10" width="50" height="50" relative="1" as="geometry">
            <mxPoint x="261" y="1060" as="sourcePoint" />
            <mxPoint x="375" y="1060" as="targetPoint" />
            <mxPoint as="offset" />
          </mxGeometry>
        </mxCell>
        <mxCell id="vbGfuvybAaN1K-2_PYyb-406" value="SendSearchRequest()" style="endArrow=classic;html=1;rounded=0;" parent="1" edge="1">
          <mxGeometry x="0.0599" y="10" width="50" height="50" relative="1" as="geometry">
            <mxPoint x="677.5" y="1160" as="sourcePoint" />
            <mxPoint x="800" y="1160" as="targetPoint" />
            <mxPoint as="offset" />
          </mxGeometry>
        </mxCell>
        <mxCell id="vbGfuvybAaN1K-2_PYyb-407" value=":System" style="rounded=1;whiteSpace=wrap;html=1;" parent="1" vertex="1">
          <mxGeometry x="771" y="860" width="80" height="40" as="geometry" />
        </mxCell>
        <mxCell id="vbGfuvybAaN1K-2_PYyb-408" value="" style="endArrow=none;dashed=1;html=1;rounded=0;entryX=0.5;entryY=1;entryDx=0;entryDy=0;" parent="1" target="vbGfuvybAaN1K-2_PYyb-407" edge="1">
          <mxGeometry width="50" height="50" relative="1" as="geometry">
            <mxPoint x="811" y="1330" as="sourcePoint" />
            <mxPoint x="805.5" y="900" as="targetPoint" />
          </mxGeometry>
        </mxCell>
        <mxCell id="vbGfuvybAaN1K-2_PYyb-409" value="" style="rounded=0;whiteSpace=wrap;html=1;" parent="1" vertex="1">
          <mxGeometry x="806" y="1050" width="10" height="250" as="geometry" />
        </mxCell>
        <mxCell id="vbGfuvybAaN1K-2_PYyb-410" value="" style="endArrow=none;dashed=1;html=1;rounded=0;entryX=1.001;entryY=0.567;entryDx=0;entryDy=0;entryPerimeter=0;exitX=0.005;exitY=0.567;exitDx=0;exitDy=0;exitPerimeter=0;" parent="1" source="vbGfuvybAaN1K-2_PYyb-240" target="vbGfuvybAaN1K-2_PYyb-240" edge="1">
          <mxGeometry width="50" height="50" relative="1" as="geometry">
            <mxPoint x="181.15" y="1242" as="sourcePoint" />
            <mxPoint x="601.15" y="1240" as="targetPoint" />
          </mxGeometry>
        </mxCell>
        <mxCell id="vbGfuvybAaN1K-2_PYyb-437" value=":system" style="rounded=1;whiteSpace=wrap;html=1;" parent="1" vertex="1">
          <mxGeometry x="1561" y="860" width="80" height="40" as="geometry" />
        </mxCell>
        <mxCell id="vbGfuvybAaN1K-2_PYyb-438" value="" style="endArrow=none;dashed=1;html=1;rounded=0;" parent="1" source="hhbA0WCjUp_SG_yH-NSP-65" edge="1">
          <mxGeometry width="50" height="50" relative="1" as="geometry">
            <mxPoint x="1602" y="1070" as="sourcePoint" />
            <mxPoint x="1601.99" y="900" as="targetPoint" />
          </mxGeometry>
        </mxCell>
        <mxCell id="vbGfuvybAaN1K-2_PYyb-474" value="搜尋房屋-房客" style="text;html=1;align=center;verticalAlign=middle;whiteSpace=wrap;rounded=0;fontSize=20;" parent="1" vertex="1">
          <mxGeometry x="405.5" y="780" width="144.5" height="30" as="geometry" />
        </mxCell>
        <mxCell id="vbGfuvybAaN1K-2_PYyb-475" value="&lt;font style=&quot;font-size: 20px;&quot;&gt;最愛路線&lt;/font&gt;" style="text;html=1;align=center;verticalAlign=middle;whiteSpace=wrap;rounded=0;" parent="1" vertex="1">
          <mxGeometry x="1118" y="740" width="92" height="30" as="geometry" />
        </mxCell>
        <mxCell id="hhbA0WCjUp_SG_yH-NSP-2" value="User" style="shape=umlActor;verticalLabelPosition=bottom;verticalAlign=top;html=1;outlineConnect=0;" vertex="1" parent="1">
          <mxGeometry x="2530" y="100" width="30" height="60" as="geometry" />
        </mxCell>
        <mxCell id="hhbA0WCjUp_SG_yH-NSP-3" value="" style="endArrow=none;dashed=1;html=1;rounded=0;" edge="1" parent="1">
          <mxGeometry width="50" height="50" relative="1" as="geometry">
            <mxPoint x="2545" y="540" as="sourcePoint" />
            <mxPoint x="2544.5" y="190" as="targetPoint" />
          </mxGeometry>
        </mxCell>
        <mxCell id="hhbA0WCjUp_SG_yH-NSP-4" value=":UserUI" style="rounded=1;whiteSpace=wrap;html=1;" vertex="1" parent="1">
          <mxGeometry x="2630" y="140" width="80" height="40" as="geometry" />
        </mxCell>
        <mxCell id="hhbA0WCjUp_SG_yH-NSP-5" value="EnterLoginSystem()" style="endArrow=classic;html=1;rounded=0;entryX=0;entryY=0.333;entryDx=0;entryDy=0;entryPerimeter=0;" edge="1" parent="1" target="hhbA0WCjUp_SG_yH-NSP-8">
          <mxGeometry y="10" width="50" height="50" relative="1" as="geometry">
            <mxPoint x="2550" y="210" as="sourcePoint" />
            <mxPoint x="2660" y="210" as="targetPoint" />
            <mxPoint as="offset" />
          </mxGeometry>
        </mxCell>
        <mxCell id="hhbA0WCjUp_SG_yH-NSP-6" value="" style="endArrow=none;dashed=1;html=1;rounded=0;" edge="1" parent="1" source="hhbA0WCjUp_SG_yH-NSP-8">
          <mxGeometry width="50" height="50" relative="1" as="geometry">
            <mxPoint x="2670" y="540" as="sourcePoint" />
            <mxPoint x="2670" y="190" as="targetPoint" />
          </mxGeometry>
        </mxCell>
        <mxCell id="hhbA0WCjUp_SG_yH-NSP-7" value="" style="endArrow=none;dashed=1;html=1;rounded=0;" edge="1" parent="1" target="hhbA0WCjUp_SG_yH-NSP-8">
          <mxGeometry width="50" height="50" relative="1" as="geometry">
            <mxPoint x="2670" y="720" as="sourcePoint" />
            <mxPoint x="2670" y="190" as="targetPoint" />
          </mxGeometry>
        </mxCell>
        <mxCell id="hhbA0WCjUp_SG_yH-NSP-8" value="" style="rounded=0;whiteSpace=wrap;html=1;" vertex="1" parent="1">
          <mxGeometry x="2665" y="200" width="10" height="30" as="geometry" />
        </mxCell>
        <mxCell id="hhbA0WCjUp_SG_yH-NSP-9" value="ShowUserUI()" style="endArrow=classic;html=1;rounded=0;dashed=1;" edge="1" parent="1">
          <mxGeometry x="-0.0526" y="14" width="50" height="50" relative="1" as="geometry">
            <mxPoint x="2665" y="219.5" as="sourcePoint" />
            <mxPoint x="2551" y="219.5" as="targetPoint" />
            <mxPoint as="offset" />
          </mxGeometry>
        </mxCell>
        <mxCell id="hhbA0WCjUp_SG_yH-NSP-10" value=":Login&lt;span style=&quot;font-size: 11px; text-wrap: nowrap; background-color: rgb(255, 255, 255);&quot;&gt;&amp;nbsp;Page&lt;/span&gt;" style="rounded=1;whiteSpace=wrap;html=1;" vertex="1" parent="1">
          <mxGeometry x="2760" y="140" width="80" height="40" as="geometry" />
        </mxCell>
        <mxCell id="hhbA0WCjUp_SG_yH-NSP-11" value="" style="rounded=0;whiteSpace=wrap;html=1;" vertex="1" parent="1">
          <mxGeometry x="2665" y="280" width="10" height="190" as="geometry" />
        </mxCell>
        <mxCell id="hhbA0WCjUp_SG_yH-NSP-12" value="" style="endArrow=none;dashed=1;html=1;rounded=0;" edge="1" parent="1" source="hhbA0WCjUp_SG_yH-NSP-14" target="hhbA0WCjUp_SG_yH-NSP-10">
          <mxGeometry width="50" height="50" relative="1" as="geometry">
            <mxPoint x="2799.5" y="540" as="sourcePoint" />
            <mxPoint x="2799.5" y="240" as="targetPoint" />
          </mxGeometry>
        </mxCell>
        <mxCell id="hhbA0WCjUp_SG_yH-NSP-13" value="" style="endArrow=none;dashed=1;html=1;rounded=0;" edge="1" parent="1" source="hhbA0WCjUp_SG_yH-NSP-19" target="hhbA0WCjUp_SG_yH-NSP-14">
          <mxGeometry width="50" height="50" relative="1" as="geometry">
            <mxPoint x="2799.5" y="540" as="sourcePoint" />
            <mxPoint x="2799.5" y="240" as="targetPoint" />
          </mxGeometry>
        </mxCell>
        <mxCell id="hhbA0WCjUp_SG_yH-NSP-14" value="" style="rounded=0;whiteSpace=wrap;html=1;" vertex="1" parent="1">
          <mxGeometry x="2795" y="290" width="10" height="30" as="geometry" />
        </mxCell>
        <mxCell id="hhbA0WCjUp_SG_yH-NSP-15" value="ClickLoginButton()" style="endArrow=classic;html=1;rounded=0;exitX=1.1;exitY=0.048;exitDx=0;exitDy=0;exitPerimeter=0;entryX=0;entryY=0;entryDx=0;entryDy=0;" edge="1" parent="1">
          <mxGeometry x="0.0599" y="10" width="50" height="50" relative="1" as="geometry">
            <mxPoint x="2678" y="300.03999999999996" as="sourcePoint" />
            <mxPoint x="2795" y="300" as="targetPoint" />
            <mxPoint as="offset" />
          </mxGeometry>
        </mxCell>
        <mxCell id="hhbA0WCjUp_SG_yH-NSP-16" value="ShowUserUI()" style="endArrow=classic;html=1;rounded=0;dashed=1;" edge="1" parent="1">
          <mxGeometry x="-0.0526" y="14" width="50" height="50" relative="1" as="geometry">
            <mxPoint x="2789" y="310" as="sourcePoint" />
            <mxPoint x="2675" y="310" as="targetPoint" />
            <mxPoint as="offset" />
          </mxGeometry>
        </mxCell>
        <mxCell id="hhbA0WCjUp_SG_yH-NSP-17" value="Login(account,&lt;div&gt;password)&lt;/div&gt;" style="endArrow=classic;html=1;rounded=0;exitX=1.1;exitY=0.048;exitDx=0;exitDy=0;exitPerimeter=0;entryX=0;entryY=0;entryDx=0;entryDy=0;" edge="1" parent="1">
          <mxGeometry x="0.1112" y="17" width="50" height="50" relative="1" as="geometry">
            <mxPoint x="2675" y="370.03999999999996" as="sourcePoint" />
            <mxPoint x="2792" y="370" as="targetPoint" />
            <mxPoint as="offset" />
          </mxGeometry>
        </mxCell>
        <mxCell id="hhbA0WCjUp_SG_yH-NSP-18" value="" style="endArrow=none;dashed=1;html=1;rounded=0;" edge="1" parent="1" target="hhbA0WCjUp_SG_yH-NSP-19">
          <mxGeometry width="50" height="50" relative="1" as="geometry">
            <mxPoint x="2800" y="720" as="sourcePoint" />
            <mxPoint x="2800" y="320" as="targetPoint" />
          </mxGeometry>
        </mxCell>
        <mxCell id="hhbA0WCjUp_SG_yH-NSP-19" value="" style="rounded=0;whiteSpace=wrap;html=1;" vertex="1" parent="1">
          <mxGeometry x="2795" y="360" width="10" height="50" as="geometry" />
        </mxCell>
        <mxCell id="hhbA0WCjUp_SG_yH-NSP-22" value="ReturnSuccess&lt;div&gt;Message()&lt;/div&gt;" style="endArrow=classic;html=1;rounded=0;dashed=1;" edge="1" parent="1">
          <mxGeometry x="-0.0526" y="14" width="50" height="50" relative="1" as="geometry">
            <mxPoint x="2789" y="390" as="sourcePoint" />
            <mxPoint x="2675" y="390" as="targetPoint" />
            <mxPoint as="offset" />
          </mxGeometry>
        </mxCell>
        <mxCell id="hhbA0WCjUp_SG_yH-NSP-26" value="&lt;font style=&quot;font-size: 20px;&quot;&gt;登出&lt;/font&gt;" style="text;html=1;align=center;verticalAlign=middle;whiteSpace=wrap;rounded=0;" vertex="1" parent="1">
          <mxGeometry x="2652.5" y="50" width="60" height="30" as="geometry" />
        </mxCell>
        <mxCell id="hhbA0WCjUp_SG_yH-NSP-30" value=":Logout&lt;span style=&quot;font-size: 11px; text-wrap: nowrap; background-color: rgb(255, 255, 255);&quot;&gt;&amp;nbsp;Page&lt;/span&gt;" style="rounded=1;whiteSpace=wrap;html=1;" vertex="1" parent="1">
          <mxGeometry x="2890" y="142.5" width="80" height="40" as="geometry" />
        </mxCell>
        <mxCell id="hhbA0WCjUp_SG_yH-NSP-31" value="" style="endArrow=none;dashed=1;html=1;rounded=0;" edge="1" parent="1" target="hhbA0WCjUp_SG_yH-NSP-30" source="hhbA0WCjUp_SG_yH-NSP-33">
          <mxGeometry width="50" height="50" relative="1" as="geometry">
            <mxPoint x="2930" y="601.5999755859375" as="sourcePoint" />
            <mxPoint x="2929.5" y="242.5" as="targetPoint" />
          </mxGeometry>
        </mxCell>
        <mxCell id="hhbA0WCjUp_SG_yH-NSP-32" value="ClickLogoutButton()" style="endArrow=classic;html=1;rounded=0;exitX=1.1;exitY=0.048;exitDx=0;exitDy=0;exitPerimeter=0;" edge="1" parent="1">
          <mxGeometry x="0.1112" y="17" width="50" height="50" relative="1" as="geometry">
            <mxPoint x="2675" y="460.03999999999996" as="sourcePoint" />
            <mxPoint x="2920" y="460" as="targetPoint" />
            <mxPoint as="offset" />
          </mxGeometry>
        </mxCell>
        <mxCell id="hhbA0WCjUp_SG_yH-NSP-34" value="" style="endArrow=none;dashed=1;html=1;rounded=0;" edge="1" parent="1" target="hhbA0WCjUp_SG_yH-NSP-33">
          <mxGeometry width="50" height="50" relative="1" as="geometry">
            <mxPoint x="2930" y="601.5999755859375" as="sourcePoint" />
            <mxPoint x="2930" y="183" as="targetPoint" />
          </mxGeometry>
        </mxCell>
        <mxCell id="hhbA0WCjUp_SG_yH-NSP-33" value="" style="rounded=0;whiteSpace=wrap;html=1;" vertex="1" parent="1">
          <mxGeometry x="2925" y="450" width="10" height="50" as="geometry" />
        </mxCell>
        <mxCell id="hhbA0WCjUp_SG_yH-NSP-35" value="Clear token()" style="endArrow=classic;html=1;rounded=0;exitX=1.1;exitY=0.048;exitDx=0;exitDy=0;exitPerimeter=0;edgeStyle=orthogonalEdgeStyle;entryX=1;entryY=0.75;entryDx=0;entryDy=0;" edge="1" parent="1" target="hhbA0WCjUp_SG_yH-NSP-33">
          <mxGeometry x="0.1112" y="17" width="50" height="50" relative="1" as="geometry">
            <mxPoint x="2935" y="460.03999999999996" as="sourcePoint" />
            <mxPoint x="3040" y="460" as="targetPoint" />
            <mxPoint as="offset" />
            <Array as="points">
              <mxPoint x="3050" y="460" />
              <mxPoint x="3050" y="488" />
            </Array>
          </mxGeometry>
        </mxCell>
        <mxCell id="hhbA0WCjUp_SG_yH-NSP-36" value="ReturnSuccess&lt;div&gt;Message()&lt;/div&gt;" style="endArrow=classic;html=1;rounded=0;dashed=1;" edge="1" parent="1">
          <mxGeometry x="-0.0526" y="14" width="50" height="50" relative="1" as="geometry">
            <mxPoint x="2920" y="490" as="sourcePoint" />
            <mxPoint x="2550" y="490" as="targetPoint" />
            <mxPoint as="offset" />
          </mxGeometry>
        </mxCell>
        <mxCell id="hhbA0WCjUp_SG_yH-NSP-40" value="EnterChooseCityPage()" style="endArrow=classic;html=1;rounded=0;" edge="1" parent="1">
          <mxGeometry x="0.0599" y="10" width="50" height="50" relative="1" as="geometry">
            <mxPoint x="385" y="1060" as="sourcePoint" />
            <mxPoint x="520" y="1060" as="targetPoint" />
            <mxPoint as="offset" />
          </mxGeometry>
        </mxCell>
        <mxCell id="hhbA0WCjUp_SG_yH-NSP-42" value="" style="endArrow=none;dashed=1;html=1;rounded=0;entryX=0.5;entryY=1;entryDx=0;entryDy=0;" edge="1" parent="1" target="hhbA0WCjUp_SG_yH-NSP-41">
          <mxGeometry width="50" height="50" relative="1" as="geometry">
            <mxPoint x="527" y="1330" as="sourcePoint" />
            <mxPoint x="527" y="900" as="targetPoint" />
          </mxGeometry>
        </mxCell>
        <mxCell id="hhbA0WCjUp_SG_yH-NSP-41" value="" style="rounded=0;whiteSpace=wrap;html=1;" vertex="1" parent="1">
          <mxGeometry x="521.5" y="1050" width="10" height="70" as="geometry" />
        </mxCell>
        <mxCell id="hhbA0WCjUp_SG_yH-NSP-43" value="EnterChooseSortButton()" style="endArrow=classic;html=1;rounded=0;" edge="1" parent="1">
          <mxGeometry x="0.0599" y="10" width="50" height="50" relative="1" as="geometry">
            <mxPoint x="531.5" y="1110" as="sourcePoint" />
            <mxPoint x="666.5" y="1110" as="targetPoint" />
            <mxPoint as="offset" />
          </mxGeometry>
        </mxCell>
        <mxCell id="hhbA0WCjUp_SG_yH-NSP-44" value=":ChooseCity&lt;span style=&quot;font-size: 11px; text-wrap: nowrap; background-color: rgb(255, 255, 255);&quot;&gt;&amp;nbsp;&lt;/span&gt;&lt;div&gt;&lt;span style=&quot;font-size: 11px; text-wrap: nowrap; background-color: rgb(255, 255, 255);&quot;&gt;Page&lt;/span&gt;&lt;/div&gt;" style="rounded=1;whiteSpace=wrap;html=1;" vertex="1" parent="1">
          <mxGeometry x="632.5" y="860" width="80" height="40" as="geometry" />
        </mxCell>
        <mxCell id="hhbA0WCjUp_SG_yH-NSP-45" value="" style="endArrow=none;dashed=1;html=1;rounded=0;entryX=0.5;entryY=1;entryDx=0;entryDy=0;" edge="1" parent="1" target="hhbA0WCjUp_SG_yH-NSP-44" source="hhbA0WCjUp_SG_yH-NSP-46">
          <mxGeometry width="50" height="50" relative="1" as="geometry">
            <mxPoint x="680" y="1460" as="sourcePoint" />
            <mxPoint x="667" y="900" as="targetPoint" />
          </mxGeometry>
        </mxCell>
        <mxCell id="hhbA0WCjUp_SG_yH-NSP-47" value="" style="endArrow=none;dashed=1;html=1;rounded=0;entryX=0.5;entryY=1;entryDx=0;entryDy=0;" edge="1" parent="1" target="hhbA0WCjUp_SG_yH-NSP-46">
          <mxGeometry width="50" height="50" relative="1" as="geometry">
            <mxPoint x="673" y="1330" as="sourcePoint" />
            <mxPoint x="673" y="900" as="targetPoint" />
          </mxGeometry>
        </mxCell>
        <mxCell id="hhbA0WCjUp_SG_yH-NSP-46" value="" style="rounded=0;whiteSpace=wrap;html=1;" vertex="1" parent="1">
          <mxGeometry x="667.5" y="1050" width="10" height="140" as="geometry" />
        </mxCell>
        <mxCell id="hhbA0WCjUp_SG_yH-NSP-49" value="ChooseCity()" style="endArrow=classic;html=1;rounded=0;edgeStyle=orthogonalEdgeStyle;entryX=1;entryY=0.5;entryDx=0;entryDy=0;" edge="1" parent="1" target="hhbA0WCjUp_SG_yH-NSP-41">
          <mxGeometry x="-0.3801" y="11" width="50" height="50" relative="1" as="geometry">
            <mxPoint x="532.5" y="1060" as="sourcePoint" />
            <mxPoint x="667.5" y="1060" as="targetPoint" />
            <mxPoint x="1" as="offset" />
            <Array as="points">
              <mxPoint x="533" y="1061" />
              <mxPoint x="630" y="1061" />
              <mxPoint x="630" y="1085" />
            </Array>
          </mxGeometry>
        </mxCell>
        <mxCell id="hhbA0WCjUp_SG_yH-NSP-50" value="ChooseSort()" style="endArrow=classic;html=1;rounded=0;edgeStyle=orthogonalEdgeStyle;entryX=1;entryY=0.5;entryDx=0;entryDy=0;" edge="1" parent="1">
          <mxGeometry x="-0.3801" y="11" width="50" height="50" relative="1" as="geometry">
            <mxPoint x="678" y="1113" as="sourcePoint" />
            <mxPoint x="677.5" y="1138" as="targetPoint" />
            <mxPoint x="1" as="offset" />
            <Array as="points">
              <mxPoint x="678.5" y="1114" />
              <mxPoint x="775.5" y="1114" />
              <mxPoint x="775.5" y="1138" />
            </Array>
          </mxGeometry>
        </mxCell>
        <mxCell id="hhbA0WCjUp_SG_yH-NSP-53" value="" style="endArrow=none;dashed=1;html=1;rounded=0;" edge="1" parent="1" target="hhbA0WCjUp_SG_yH-NSP-52">
          <mxGeometry width="50" height="50" relative="1" as="geometry">
            <mxPoint x="380" y="1330" as="sourcePoint" />
            <mxPoint x="380" y="1170" as="targetPoint" />
          </mxGeometry>
        </mxCell>
        <mxCell id="hhbA0WCjUp_SG_yH-NSP-52" value="" style="rounded=0;whiteSpace=wrap;html=1;" vertex="1" parent="1">
          <mxGeometry x="375" y="1240" width="10" height="30" as="geometry" />
        </mxCell>
        <mxCell id="hhbA0WCjUp_SG_yH-NSP-55" value=":HousePage" style="rounded=1;whiteSpace=wrap;html=1;" vertex="1" parent="1">
          <mxGeometry x="1321" y="860" width="80" height="40" as="geometry" />
        </mxCell>
        <mxCell id="hhbA0WCjUp_SG_yH-NSP-56" value="" style="endArrow=none;dashed=1;html=1;rounded=0;" edge="1" parent="1">
          <mxGeometry width="50" height="50" relative="1" as="geometry">
            <mxPoint x="1360" y="1160" as="sourcePoint" />
            <mxPoint x="1360" y="900" as="targetPoint" />
          </mxGeometry>
        </mxCell>
        <mxCell id="vbGfuvybAaN1K-2_PYyb-451" value="" style="rounded=0;whiteSpace=wrap;html=1;" parent="1" vertex="1">
          <mxGeometry x="1356" y="950" width="10" height="90" as="geometry" />
        </mxCell>
        <mxCell id="hhbA0WCjUp_SG_yH-NSP-60" value="ClickHouse()" style="endArrow=classic;html=1;rounded=0;" edge="1" parent="1">
          <mxGeometry x="0.0087" y="10" width="50" height="50" relative="1" as="geometry">
            <mxPoint x="1241" y="980" as="sourcePoint" />
            <mxPoint x="1355" y="980" as="targetPoint" />
            <mxPoint as="offset" />
          </mxGeometry>
        </mxCell>
        <mxCell id="hhbA0WCjUp_SG_yH-NSP-61" value="ShowHousePage()" style="endArrow=classic;html=1;rounded=0;dashed=1;startArrow=none;startFill=0;" edge="1" parent="1">
          <mxGeometry x="-0.0226" y="10" width="50" height="50" relative="1" as="geometry">
            <mxPoint x="1356" y="999" as="sourcePoint" />
            <mxPoint x="1240" y="999" as="targetPoint" />
            <mxPoint as="offset" />
          </mxGeometry>
        </mxCell>
        <mxCell id="hhbA0WCjUp_SG_yH-NSP-62" value="ClickKeepButton()" style="endArrow=classic;html=1;rounded=0;" edge="1" parent="1">
          <mxGeometry x="0.0087" y="10" width="50" height="50" relative="1" as="geometry">
            <mxPoint x="1366" y="980" as="sourcePoint" />
            <mxPoint x="1600" y="980" as="targetPoint" />
            <mxPoint as="offset" />
          </mxGeometry>
        </mxCell>
        <mxCell id="hhbA0WCjUp_SG_yH-NSP-64" value="ReturnSuccess&lt;div&gt;Message()&lt;/div&gt;" style="endArrow=classic;html=1;rounded=0;dashed=1;" edge="1" parent="1">
          <mxGeometry x="-0.0526" y="14" width="50" height="50" relative="1" as="geometry">
            <mxPoint x="1596" y="999.5" as="sourcePoint" />
            <mxPoint x="1370" y="999" as="targetPoint" />
            <mxPoint as="offset" />
          </mxGeometry>
        </mxCell>
        <mxCell id="hhbA0WCjUp_SG_yH-NSP-66" value="" style="endArrow=none;dashed=1;html=1;rounded=0;" edge="1" parent="1" target="hhbA0WCjUp_SG_yH-NSP-65">
          <mxGeometry width="50" height="50" relative="1" as="geometry">
            <mxPoint x="1600" y="1160" as="sourcePoint" />
            <mxPoint x="1601.99" y="900" as="targetPoint" />
          </mxGeometry>
        </mxCell>
        <mxCell id="hhbA0WCjUp_SG_yH-NSP-65" value="" style="rounded=0;whiteSpace=wrap;html=1;" vertex="1" parent="1">
          <mxGeometry x="1596" y="970" width="10" height="70" as="geometry" />
        </mxCell>
        <mxCell id="hhbA0WCjUp_SG_yH-NSP-69" value="ClickBack()" style="endArrow=classic;html=1;rounded=0;entryX=1.22;entryY=0.535;entryDx=0;entryDy=0;entryPerimeter=0;exitX=0;exitY=0.847;exitDx=0;exitDy=0;exitPerimeter=0;" edge="1" parent="1" source="vbGfuvybAaN1K-2_PYyb-451" target="vbGfuvybAaN1K-2_PYyb-397">
          <mxGeometry x="0.0087" y="10" width="50" height="50" relative="1" as="geometry">
            <mxPoint x="1350" y="1025" as="sourcePoint" />
            <mxPoint x="1366" y="1130" as="targetPoint" />
            <mxPoint as="offset" />
          </mxGeometry>
        </mxCell>
        <mxCell id="hhbA0WCjUp_SG_yH-NSP-70" value="ClickKeepButton()" style="endArrow=classic;html=1;rounded=0;" edge="1" parent="1">
          <mxGeometry x="0.0087" y="10" width="50" height="50" relative="1" as="geometry">
            <mxPoint x="1243" y="1080" as="sourcePoint" />
            <mxPoint x="1470" y="1080" as="targetPoint" />
            <mxPoint as="offset" />
          </mxGeometry>
        </mxCell>
        <mxCell id="hhbA0WCjUp_SG_yH-NSP-72" value="" style="endArrow=none;dashed=1;html=1;rounded=0;" edge="1" parent="1" target="hhbA0WCjUp_SG_yH-NSP-71">
          <mxGeometry width="50" height="50" relative="1" as="geometry">
            <mxPoint x="1483" y="1160" as="sourcePoint" />
            <mxPoint x="1483" y="900" as="targetPoint" />
          </mxGeometry>
        </mxCell>
        <mxCell id="hhbA0WCjUp_SG_yH-NSP-71" value="" style="rounded=0;whiteSpace=wrap;html=1;" vertex="1" parent="1">
          <mxGeometry x="1477" y="1048" width="10" height="90" as="geometry" />
        </mxCell>
        <mxCell id="hhbA0WCjUp_SG_yH-NSP-73" value="ShowKeepPage()" style="endArrow=classic;html=1;rounded=0;dashed=1;startArrow=none;startFill=0;exitX=-0.1;exitY=0.602;exitDx=0;exitDy=0;exitPerimeter=0;" edge="1" parent="1" source="hhbA0WCjUp_SG_yH-NSP-71">
          <mxGeometry x="-0.0226" y="10" width="50" height="50" relative="1" as="geometry">
            <mxPoint x="1470" y="1100" as="sourcePoint" />
            <mxPoint x="1243" y="1102.5" as="targetPoint" />
            <mxPoint as="offset" />
          </mxGeometry>
        </mxCell>
        <mxCell id="hhbA0WCjUp_SG_yH-NSP-74" value="User" style="shape=umlActor;verticalLabelPosition=bottom;verticalAlign=top;html=1;outlineConnect=0;" vertex="1" parent="1">
          <mxGeometry x="1810" y="829" width="30" height="60" as="geometry" />
        </mxCell>
        <mxCell id="hhbA0WCjUp_SG_yH-NSP-75" value="" style="endArrow=none;dashed=1;html=1;rounded=0;" edge="1" parent="1">
          <mxGeometry width="50" height="50" relative="1" as="geometry">
            <mxPoint x="1824" y="1169" as="sourcePoint" />
            <mxPoint x="1824.5" y="919" as="targetPoint" />
          </mxGeometry>
        </mxCell>
        <mxCell id="hhbA0WCjUp_SG_yH-NSP-76" value=":UserUI" style="rounded=1;whiteSpace=wrap;html=1;" vertex="1" parent="1">
          <mxGeometry x="1910" y="869" width="80" height="40" as="geometry" />
        </mxCell>
        <mxCell id="hhbA0WCjUp_SG_yH-NSP-77" value="" style="endArrow=none;dashed=1;html=1;rounded=0;entryX=0.5;entryY=1;entryDx=0;entryDy=0;" edge="1" parent="1" target="hhbA0WCjUp_SG_yH-NSP-76">
          <mxGeometry width="50" height="50" relative="1" as="geometry">
            <mxPoint x="1950" y="1169" as="sourcePoint" />
            <mxPoint x="1950" y="919" as="targetPoint" />
          </mxGeometry>
        </mxCell>
        <mxCell id="hhbA0WCjUp_SG_yH-NSP-78" value=":KeepPage" style="rounded=1;whiteSpace=wrap;html=1;" vertex="1" parent="1">
          <mxGeometry x="2154" y="869" width="80" height="40" as="geometry" />
        </mxCell>
        <mxCell id="hhbA0WCjUp_SG_yH-NSP-79" value="" style="endArrow=none;dashed=1;html=1;rounded=0;" edge="1" parent="1" source="hhbA0WCjUp_SG_yH-NSP-98">
          <mxGeometry width="50" height="50" relative="1" as="geometry">
            <mxPoint x="2197" y="1239" as="sourcePoint" />
            <mxPoint x="2197" y="909" as="targetPoint" />
          </mxGeometry>
        </mxCell>
        <mxCell id="hhbA0WCjUp_SG_yH-NSP-80" value="EnterKeepSystem()" style="endArrow=classic;html=1;rounded=0;" edge="1" parent="1">
          <mxGeometry x="0.0087" y="10" width="50" height="50" relative="1" as="geometry">
            <mxPoint x="1830" y="939" as="sourcePoint" />
            <mxPoint x="1944" y="939" as="targetPoint" />
            <mxPoint as="offset" />
          </mxGeometry>
        </mxCell>
        <mxCell id="hhbA0WCjUp_SG_yH-NSP-81" value="" style="rounded=0;whiteSpace=wrap;html=1;" vertex="1" parent="1">
          <mxGeometry x="1945" y="929" width="10" height="200" as="geometry" />
        </mxCell>
        <mxCell id="hhbA0WCjUp_SG_yH-NSP-82" value="ShowUserUI()" style="endArrow=classic;html=1;rounded=0;dashed=1;" edge="1" parent="1">
          <mxGeometry x="-0.0526" y="14" width="50" height="50" relative="1" as="geometry">
            <mxPoint x="1945" y="948.5" as="sourcePoint" />
            <mxPoint x="1831" y="948.5" as="targetPoint" />
            <mxPoint as="offset" />
          </mxGeometry>
        </mxCell>
        <mxCell id="hhbA0WCjUp_SG_yH-NSP-83" value=":system" style="rounded=1;whiteSpace=wrap;html=1;" vertex="1" parent="1">
          <mxGeometry x="2275" y="869" width="80" height="40" as="geometry" />
        </mxCell>
        <mxCell id="hhbA0WCjUp_SG_yH-NSP-84" value="" style="endArrow=none;dashed=1;html=1;rounded=0;" edge="1" parent="1" source="hhbA0WCjUp_SG_yH-NSP-94">
          <mxGeometry width="50" height="50" relative="1" as="geometry">
            <mxPoint x="2316" y="1079" as="sourcePoint" />
            <mxPoint x="2315.99" y="909" as="targetPoint" />
          </mxGeometry>
        </mxCell>
        <mxCell id="hhbA0WCjUp_SG_yH-NSP-85" value="&lt;font style=&quot;font-size: 20px;&quot;&gt;最愛路線&lt;/font&gt;" style="text;html=1;align=center;verticalAlign=middle;whiteSpace=wrap;rounded=0;" vertex="1" parent="1">
          <mxGeometry x="1832" y="749" width="92" height="30" as="geometry" />
        </mxCell>
        <mxCell id="hhbA0WCjUp_SG_yH-NSP-86" value=":HousePage" style="rounded=1;whiteSpace=wrap;html=1;" vertex="1" parent="1">
          <mxGeometry x="2035" y="869" width="80" height="40" as="geometry" />
        </mxCell>
        <mxCell id="hhbA0WCjUp_SG_yH-NSP-87" value="" style="endArrow=none;dashed=1;html=1;rounded=0;" edge="1" parent="1">
          <mxGeometry width="50" height="50" relative="1" as="geometry">
            <mxPoint x="2074" y="1169" as="sourcePoint" />
            <mxPoint x="2074" y="909" as="targetPoint" />
          </mxGeometry>
        </mxCell>
        <mxCell id="hhbA0WCjUp_SG_yH-NSP-88" value="" style="rounded=0;whiteSpace=wrap;html=1;" vertex="1" parent="1">
          <mxGeometry x="2070" y="959" width="10" height="90" as="geometry" />
        </mxCell>
        <mxCell id="hhbA0WCjUp_SG_yH-NSP-89" value="ClickHouse()" style="endArrow=classic;html=1;rounded=0;" edge="1" parent="1">
          <mxGeometry x="0.0087" y="10" width="50" height="50" relative="1" as="geometry">
            <mxPoint x="1955" y="989" as="sourcePoint" />
            <mxPoint x="2069" y="989" as="targetPoint" />
            <mxPoint as="offset" />
          </mxGeometry>
        </mxCell>
        <mxCell id="hhbA0WCjUp_SG_yH-NSP-90" value="ShowHousePage()" style="endArrow=classic;html=1;rounded=0;dashed=1;startArrow=none;startFill=0;" edge="1" parent="1">
          <mxGeometry x="-0.0226" y="10" width="50" height="50" relative="1" as="geometry">
            <mxPoint x="2070" y="1008" as="sourcePoint" />
            <mxPoint x="1954" y="1008" as="targetPoint" />
            <mxPoint as="offset" />
          </mxGeometry>
        </mxCell>
        <mxCell id="hhbA0WCjUp_SG_yH-NSP-91" value="ClickKeepButton()" style="endArrow=classic;html=1;rounded=0;" edge="1" parent="1">
          <mxGeometry x="0.0087" y="10" width="50" height="50" relative="1" as="geometry">
            <mxPoint x="2080" y="989" as="sourcePoint" />
            <mxPoint x="2314" y="989" as="targetPoint" />
            <mxPoint as="offset" />
          </mxGeometry>
        </mxCell>
        <mxCell id="hhbA0WCjUp_SG_yH-NSP-92" value="ReturnSuccess&lt;div&gt;Message()&lt;/div&gt;" style="endArrow=classic;html=1;rounded=0;dashed=1;" edge="1" parent="1">
          <mxGeometry x="-0.0526" y="14" width="50" height="50" relative="1" as="geometry">
            <mxPoint x="2310" y="1008.5" as="sourcePoint" />
            <mxPoint x="2084" y="1008" as="targetPoint" />
            <mxPoint as="offset" />
          </mxGeometry>
        </mxCell>
        <mxCell id="hhbA0WCjUp_SG_yH-NSP-93" value="" style="endArrow=none;dashed=1;html=1;rounded=0;" edge="1" parent="1" target="hhbA0WCjUp_SG_yH-NSP-94">
          <mxGeometry width="50" height="50" relative="1" as="geometry">
            <mxPoint x="2314" y="1169" as="sourcePoint" />
            <mxPoint x="2315.99" y="909" as="targetPoint" />
          </mxGeometry>
        </mxCell>
        <mxCell id="hhbA0WCjUp_SG_yH-NSP-94" value="" style="rounded=0;whiteSpace=wrap;html=1;" vertex="1" parent="1">
          <mxGeometry x="2310" y="979" width="10" height="70" as="geometry" />
        </mxCell>
        <mxCell id="hhbA0WCjUp_SG_yH-NSP-95" value="ClickBack()" style="endArrow=classic;html=1;rounded=0;entryX=1.22;entryY=0.535;entryDx=0;entryDy=0;entryPerimeter=0;exitX=0;exitY=0.847;exitDx=0;exitDy=0;exitPerimeter=0;" edge="1" parent="1" source="hhbA0WCjUp_SG_yH-NSP-88" target="hhbA0WCjUp_SG_yH-NSP-81">
          <mxGeometry x="0.0087" y="10" width="50" height="50" relative="1" as="geometry">
            <mxPoint x="2064" y="1034" as="sourcePoint" />
            <mxPoint x="2080" y="1139" as="targetPoint" />
            <mxPoint as="offset" />
          </mxGeometry>
        </mxCell>
        <mxCell id="hhbA0WCjUp_SG_yH-NSP-96" value="ClickKeepButton()" style="endArrow=classic;html=1;rounded=0;" edge="1" parent="1">
          <mxGeometry x="0.0087" y="10" width="50" height="50" relative="1" as="geometry">
            <mxPoint x="1957" y="1089" as="sourcePoint" />
            <mxPoint x="2184" y="1089" as="targetPoint" />
            <mxPoint as="offset" />
          </mxGeometry>
        </mxCell>
        <mxCell id="hhbA0WCjUp_SG_yH-NSP-97" value="" style="endArrow=none;dashed=1;html=1;rounded=0;" edge="1" parent="1" target="hhbA0WCjUp_SG_yH-NSP-98">
          <mxGeometry width="50" height="50" relative="1" as="geometry">
            <mxPoint x="2197" y="1169" as="sourcePoint" />
            <mxPoint x="2197" y="909" as="targetPoint" />
          </mxGeometry>
        </mxCell>
        <mxCell id="hhbA0WCjUp_SG_yH-NSP-98" value="" style="rounded=0;whiteSpace=wrap;html=1;" vertex="1" parent="1">
          <mxGeometry x="2191" y="1057" width="10" height="90" as="geometry" />
        </mxCell>
        <mxCell id="hhbA0WCjUp_SG_yH-NSP-99" value="ShowKeepPage()" style="endArrow=classic;html=1;rounded=0;dashed=1;startArrow=none;startFill=0;exitX=-0.1;exitY=0.602;exitDx=0;exitDy=0;exitPerimeter=0;" edge="1" parent="1" source="hhbA0WCjUp_SG_yH-NSP-98">
          <mxGeometry x="-0.0226" y="10" width="50" height="50" relative="1" as="geometry">
            <mxPoint x="2184" y="1109" as="sourcePoint" />
            <mxPoint x="1957" y="1111.5" as="targetPoint" />
            <mxPoint as="offset" />
          </mxGeometry>
        </mxCell>
      </root>
    </mxGraphModel>
  </diagram>
</mxfile>
